<svg xmlns="http://www.w3.org/2000/svg" xmlns:xlink="http://www.w3.org/1999/xlink" width="50" zoomAndPan="magnify" viewBox="0 0 37.5 37.499999" height="50" preserveAspectRatio="xMidYMid meet" version="1.0"><defs><clipPath id="e21a449292"><path d="M 5 7 L 32 7 L 32 35.78125 L 5 35.78125 Z M 5 7 " clip-rule="nonzero"/></clipPath><clipPath id="405223ec62"><path d="M 0 0.996094 L 37.007812 0.996094 L 37.007812 20 L 0 20 Z M 0 0.996094 " clip-rule="nonzero"/></clipPath></defs><g clip-path="url(#e21a449292)"><path fill="#ffffff" d="M 31.496094 18.792969 Z M 31.496094 18.792969 L 18.507812 7.292969 L 5.511719 18.800781 L 5.511719 35.242188 C 5.511719 35.667969 5.855469 36.007812 6.28125 36.007812 L 14.402344 36.007812 L 14.402344 28.796875 C 14.402344 28.375 14.742188 28.03125 15.167969 28.03125 L 21.839844 28.03125 C 22.265625 28.03125 22.605469 28.375 22.605469 28.796875 L 22.605469 36.007812 L 30.730469 36.007812 C 31.152344 36.007812 31.496094 35.667969 31.496094 35.242188 Z M 5.511719 18.800781 Z M 5.511719 18.800781 " fill-opacity="1" fill-rule="nonzero"/></g><g clip-path="url(#405223ec62)"><path fill="#ffffff" d="M 18.429688 0.996094 L 0 17.316406 L 1.941406 19.507812 L 18.507812 4.839844 L 35.070312 19.507812 L 37.007812 17.316406 L 18.578125 0.996094 L 18.507812 1.082031 L 18.433594 0.996094 Z M 18.429688 0.996094 " fill-opacity="1" fill-rule="nonzero"/></g><path fill="#ffffff" d="M 5.511719 3.347656 L 10.183594 3.347656 L 10.144531 6.113281 L 5.511719 10.296875 Z M 5.511719 3.347656 " fill-opacity="1" fill-rule="nonzero"/></svg>