<svg xmlns="http://www.w3.org/2000/svg" xmlns:xlink="http://www.w3.org/1999/xlink" width="50" zoomAndPan="magnify" viewBox="0 0 37.5 37.499999" height="50" preserveAspectRatio="xMidYMid meet" version="1.0"><defs><clipPath id="86d4d15175"><path d="M 25 35 L 34 35 L 34 37.007812 L 25 37.007812 Z M 25 35 " clip-rule="nonzero"/></clipPath><clipPath id="157e2abdcc"><path d="M 22 0 L 24 0 L 24 37.007812 L 22 37.007812 Z M 22 0 " clip-rule="nonzero"/></clipPath><clipPath id="489f40817b"><path d="M 1.320312 0 L 3 0 L 3 37.007812 L 1.320312 37.007812 Z M 1.320312 0 " clip-rule="nonzero"/></clipPath><clipPath id="cc12587bf3"><path d="M 34 0 L 35.363281 0 L 35.363281 37.007812 L 34 37.007812 Z M 34 0 " clip-rule="nonzero"/></clipPath><clipPath id="31ae09c26a"><path d="M 3 35 L 22 35 L 22 37.007812 L 3 37.007812 Z M 3 35 " clip-rule="nonzero"/></clipPath></defs><path fill="#ffffff" d="M 19.824219 29.738281 C 19.824219 30.101562 19.527344 30.398438 19.164062 30.398438 L 15.199219 30.398438 C 14.835938 30.398438 14.539062 30.101562 14.539062 29.738281 L 14.539062 27.753906 L 13.214844 27.753906 L 13.214844 34.363281 L 21.148438 34.363281 L 21.148438 27.753906 L 19.824219 27.753906 L 19.824219 29.738281 " fill-opacity="1" fill-rule="nonzero"/><path fill="#ffffff" d="M 19.824219 21.808594 C 19.824219 22.171875 19.527344 22.46875 19.164062 22.46875 L 15.199219 22.46875 C 14.835938 22.46875 14.539062 22.171875 14.539062 21.808594 L 14.539062 19.824219 L 13.214844 19.824219 L 13.214844 26.433594 L 21.148438 26.433594 L 21.148438 19.824219 L 19.824219 19.824219 L 19.824219 21.808594 " fill-opacity="1" fill-rule="nonzero"/><path fill="#ffffff" d="M 15.859375 27.753906 L 15.859375 29.078125 L 18.503906 29.078125 L 18.503906 27.753906 L 15.859375 27.753906 " fill-opacity="1" fill-rule="nonzero"/><path fill="#ffffff" d="M 15.859375 19.824219 L 15.859375 21.148438 L 18.503906 21.148438 L 18.503906 19.824219 L 15.859375 19.824219 " fill-opacity="1" fill-rule="nonzero"/><path fill="#ffffff" d="M 21.148438 9.25 L 19.824219 9.25 L 19.824219 11.234375 C 19.824219 11.597656 19.527344 11.894531 19.164062 11.894531 L 15.199219 11.894531 C 14.835938 11.894531 14.539062 11.597656 14.539062 11.234375 L 14.539062 9.25 L 13.214844 9.25 L 13.214844 15.859375 L 21.148438 15.859375 L 21.148438 9.25 " fill-opacity="1" fill-rule="nonzero"/><path fill="#ffffff" d="M 18.503906 9.25 L 15.859375 9.25 L 15.859375 10.574219 L 18.503906 10.574219 L 18.503906 9.25 " fill-opacity="1" fill-rule="nonzero"/><path fill="#ffffff" d="M 30.398438 21.148438 L 30.398438 19.824219 L 27.753906 19.824219 L 27.753906 21.148438 L 30.398438 21.148438 " fill-opacity="1" fill-rule="nonzero"/><path fill="#ffffff" d="M 9.25 1.320312 L 6.609375 1.320312 L 6.609375 2.644531 L 9.25 2.644531 L 9.25 1.320312 " fill-opacity="1" fill-rule="nonzero"/><path fill="#ffffff" d="M 33.042969 17.179688 L 25.113281 17.179688 L 25.113281 18.503906 L 33.042969 18.503906 L 33.042969 17.179688 " fill-opacity="1" fill-rule="nonzero"/><path fill="#ffffff" d="M 33.042969 9.25 L 31.71875 9.25 L 31.71875 11.234375 C 31.71875 11.597656 31.425781 11.894531 31.058594 11.894531 L 27.09375 11.894531 C 26.730469 11.894531 26.433594 11.597656 26.433594 11.234375 L 26.433594 9.25 L 25.113281 9.25 L 25.113281 15.859375 L 33.042969 15.859375 L 33.042969 9.25 " fill-opacity="1" fill-rule="nonzero"/><path fill="#ffffff" d="M 30.398438 9.25 L 27.753906 9.25 L 27.753906 10.574219 L 30.398438 10.574219 L 30.398438 9.25 " fill-opacity="1" fill-rule="nonzero"/><path fill="#ffffff" d="M 33.042969 19.824219 L 31.71875 19.824219 L 31.71875 21.808594 C 31.71875 22.171875 31.425781 22.46875 31.058594 22.46875 L 27.09375 22.46875 C 26.730469 22.46875 26.433594 22.171875 26.433594 21.808594 L 26.433594 19.824219 L 25.113281 19.824219 L 25.113281 26.433594 L 33.042969 26.433594 L 33.042969 19.824219 " fill-opacity="1" fill-rule="nonzero"/><g clip-path="url(#86d4d15175)"><path fill="#ffffff" d="M 33.042969 35.683594 L 25.113281 35.683594 L 25.113281 37.007812 L 33.042969 37.007812 L 33.042969 35.683594 " fill-opacity="1" fill-rule="nonzero"/></g><path fill="#ffffff" d="M 33.042969 27.753906 L 31.71875 27.753906 L 31.71875 29.738281 C 31.71875 30.101562 31.425781 30.398438 31.058594 30.398438 L 27.09375 30.398438 C 26.730469 30.398438 26.433594 30.101562 26.433594 29.738281 L 26.433594 27.753906 L 25.113281 27.753906 L 25.113281 34.363281 L 33.042969 34.363281 L 33.042969 27.753906 " fill-opacity="1" fill-rule="nonzero"/><g clip-path="url(#157e2abdcc)"><path fill="#ffffff" d="M 23.789062 0 L 22.46875 0 L 22.46875 37.007812 L 23.789062 37.007812 L 23.789062 0 " fill-opacity="1" fill-rule="nonzero"/></g><path fill="#ffffff" d="M 30.398438 29.078125 L 30.398438 27.753906 L 27.753906 27.753906 L 27.753906 29.078125 L 30.398438 29.078125 " fill-opacity="1" fill-rule="nonzero"/><g clip-path="url(#489f40817b)"><path fill="#ffffff" d="M 2.644531 0 L 1.320312 0 L 1.320312 37.007812 L 2.644531 37.007812 L 2.644531 0 " fill-opacity="1" fill-rule="nonzero"/></g><g clip-path="url(#cc12587bf3)"><path fill="#ffffff" d="M 35.683594 0 L 34.363281 0 L 34.363281 37.007812 L 35.683594 37.007812 L 35.683594 0 " fill-opacity="1" fill-rule="nonzero"/></g><path fill="#ffffff" d="M 11.894531 27.753906 L 10.574219 27.753906 L 10.574219 29.738281 C 10.574219 30.101562 10.277344 30.398438 9.914062 30.398438 L 5.949219 30.398438 C 5.582031 30.398438 5.285156 30.101562 5.285156 29.738281 L 5.285156 27.753906 L 3.964844 27.753906 L 3.964844 34.363281 L 11.894531 34.363281 L 11.894531 27.753906 " fill-opacity="1" fill-rule="nonzero"/><path fill="#ffffff" d="M 21.148438 17.179688 L 3.964844 17.179688 L 3.964844 18.503906 L 21.148438 18.503906 L 21.148438 17.179688 " fill-opacity="1" fill-rule="nonzero"/><path fill="#ffffff" d="M 9.25 21.148438 L 9.25 19.824219 L 6.609375 19.824219 L 6.609375 21.148438 L 9.25 21.148438 " fill-opacity="1" fill-rule="nonzero"/><path fill="#ffffff" d="M 11.894531 19.824219 L 10.574219 19.824219 L 10.574219 21.808594 C 10.574219 22.171875 10.277344 22.46875 9.914062 22.46875 L 5.949219 22.46875 C 5.582031 22.46875 5.285156 22.171875 5.285156 21.808594 L 5.285156 19.824219 L 3.964844 19.824219 L 3.964844 26.433594 L 11.894531 26.433594 L 11.894531 19.824219 " fill-opacity="1" fill-rule="nonzero"/><path fill="#ffffff" d="M 11.894531 9.25 L 10.574219 9.25 L 10.574219 11.234375 C 10.574219 11.597656 10.277344 11.894531 9.914062 11.894531 L 5.949219 11.894531 C 5.582031 11.894531 5.285156 11.597656 5.285156 11.234375 L 5.285156 9.25 L 3.964844 9.25 L 3.964844 15.859375 L 11.894531 15.859375 L 11.894531 9.25 " fill-opacity="1" fill-rule="nonzero"/><path fill="#ffffff" d="M 9.25 10.574219 L 9.25 9.25 L 6.609375 9.25 L 6.609375 10.574219 L 9.25 10.574219 " fill-opacity="1" fill-rule="nonzero"/><path fill="#ffffff" d="M 9.25 29.078125 L 9.25 27.753906 L 6.609375 27.753906 L 6.609375 29.078125 L 9.25 29.078125 " fill-opacity="1" fill-rule="nonzero"/><g clip-path="url(#31ae09c26a)"><path fill="#ffffff" d="M 21.148438 35.683594 L 3.964844 35.683594 L 3.964844 37.007812 L 21.148438 37.007812 L 21.148438 35.683594 " fill-opacity="1" fill-rule="nonzero"/></g><path fill="#ffffff" d="M 11.894531 1.320312 L 10.574219 1.320312 L 10.574219 3.304688 C 10.574219 3.667969 10.277344 3.964844 9.914062 3.964844 L 5.949219 3.964844 C 5.582031 3.964844 5.285156 3.667969 5.285156 3.304688 L 5.285156 1.320312 L 3.964844 1.320312 L 3.964844 7.929688 L 11.894531 7.929688 L 11.894531 1.320312 " fill-opacity="1" fill-rule="nonzero"/></svg>