<svg xmlns="http://www.w3.org/2000/svg" xmlns:xlink="http://www.w3.org/1999/xlink" width="50" zoomAndPan="magnify" viewBox="0 0 37.5 37.499999" height="50" preserveAspectRatio="xMidYMid meet" version="1.0"><defs><clipPath id="3199f89b23"><path d="M 30 16 L 37.007812 16 L 37.007812 28 L 30 28 Z M 30 16 " clip-rule="nonzero"/></clipPath><clipPath id="ee25acf485"><path d="M 8 16 L 29 16 L 29 32.3125 L 8 32.3125 Z M 8 16 " clip-rule="nonzero"/></clipPath><clipPath id="b30e61e901"><path d="M 12 4.925781 L 25 4.925781 L 25 18 L 12 18 Z M 12 4.925781 " clip-rule="nonzero"/></clipPath></defs><path fill="#ffffff" d="M 33.921875 12.953125 C 33.921875 13.234375 33.894531 13.515625 33.839844 13.792969 C 33.785156 14.074219 33.703125 14.34375 33.59375 14.605469 C 33.484375 14.867188 33.351562 15.113281 33.195312 15.351562 C 33.039062 15.585938 32.859375 15.804688 32.65625 16.003906 C 32.457031 16.207031 32.238281 16.382812 32.003906 16.542969 C 31.769531 16.699219 31.519531 16.832031 31.257812 16.941406 C 30.996094 17.050781 30.726562 17.132812 30.449219 17.1875 C 30.167969 17.242188 29.890625 17.269531 29.605469 17.269531 C 29.320312 17.269531 29.039062 17.242188 28.761719 17.1875 C 28.484375 17.132812 28.214844 17.050781 27.953125 16.941406 C 27.691406 16.832031 27.441406 16.699219 27.207031 16.542969 C 26.972656 16.382812 26.753906 16.207031 26.550781 16.003906 C 26.351562 15.804688 26.171875 15.585938 26.015625 15.351562 C 25.859375 15.113281 25.726562 14.867188 25.617188 14.605469 C 25.507812 14.34375 25.425781 14.074219 25.371094 13.792969 C 25.316406 13.515625 25.289062 13.234375 25.289062 12.953125 C 25.289062 12.667969 25.316406 12.386719 25.371094 12.109375 C 25.425781 11.832031 25.507812 11.5625 25.617188 11.300781 C 25.726562 11.039062 25.859375 10.789062 26.015625 10.554688 C 26.171875 10.316406 26.351562 10.101562 26.550781 9.898438 C 26.753906 9.699219 26.972656 9.519531 27.207031 9.363281 C 27.441406 9.203125 27.691406 9.070312 27.953125 8.964844 C 28.214844 8.855469 28.484375 8.773438 28.761719 8.71875 C 29.039062 8.664062 29.320312 8.636719 29.605469 8.636719 C 29.890625 8.636719 30.167969 8.664062 30.449219 8.71875 C 30.726562 8.773438 30.996094 8.855469 31.257812 8.964844 C 31.519531 9.070312 31.769531 9.203125 32.003906 9.363281 C 32.238281 9.519531 32.457031 9.699219 32.65625 9.898438 C 32.859375 10.101562 33.039062 10.316406 33.195312 10.554688 C 33.351562 10.789062 33.484375 11.039062 33.59375 11.300781 C 33.703125 11.5625 33.785156 11.832031 33.839844 12.109375 C 33.894531 12.386719 33.921875 12.667969 33.921875 12.953125 Z M 33.921875 12.953125 " fill-opacity="1" fill-rule="nonzero"/><g clip-path="url(#3199f89b23)"><path fill="#ffffff" d="M 35.265625 16.691406 C 34.695312 17.558594 33.964844 18.257812 33.074219 18.792969 C 32.183594 19.328125 31.21875 19.640625 30.183594 19.738281 C 30.617188 20.933594 30.835938 22.164062 30.839844 23.4375 L 30.839844 27.136719 L 33.304688 27.136719 C 33.796875 27.136719 34.269531 27.042969 34.722656 26.855469 C 35.175781 26.667969 35.574219 26.402344 35.921875 26.054688 C 36.269531 25.707031 36.535156 25.308594 36.726562 24.855469 C 36.914062 24.398438 37.007812 23.929688 37.007812 23.4375 L 37.007812 20.96875 C 37.003906 20.171875 36.855469 19.402344 36.554688 18.660156 C 36.253906 17.921875 35.824219 17.265625 35.265625 16.691406 Z M 35.265625 16.691406 " fill-opacity="1" fill-rule="nonzero"/></g><path fill="#ffffff" d="M 11.71875 12.953125 C 11.71875 13.234375 11.691406 13.515625 11.636719 13.792969 C 11.582031 14.074219 11.5 14.34375 11.390625 14.605469 C 11.28125 14.867188 11.148438 15.113281 10.992188 15.351562 C 10.832031 15.585938 10.65625 15.804688 10.453125 16.003906 C 10.253906 16.207031 10.035156 16.382812 9.800781 16.542969 C 9.5625 16.699219 9.316406 16.832031 9.054688 16.941406 C 8.792969 17.050781 8.523438 17.132812 8.242188 17.1875 C 7.964844 17.242188 7.683594 17.269531 7.402344 17.269531 C 7.117188 17.269531 6.835938 17.242188 6.558594 17.1875 C 6.28125 17.132812 6.011719 17.050781 5.75 16.941406 C 5.488281 16.832031 5.238281 16.699219 5.003906 16.542969 C 4.765625 16.382812 4.550781 16.207031 4.347656 16.003906 C 4.148438 15.804688 3.96875 15.585938 3.8125 15.351562 C 3.652344 15.113281 3.519531 14.867188 3.414062 14.605469 C 3.304688 14.34375 3.222656 14.074219 3.167969 13.792969 C 3.113281 13.515625 3.082031 13.234375 3.082031 12.953125 C 3.082031 12.667969 3.113281 12.386719 3.167969 12.109375 C 3.222656 11.832031 3.304688 11.5625 3.414062 11.300781 C 3.519531 11.039062 3.652344 10.789062 3.8125 10.554688 C 3.96875 10.316406 4.148438 10.101562 4.347656 9.898438 C 4.550781 9.699219 4.765625 9.519531 5.003906 9.363281 C 5.238281 9.203125 5.488281 9.070312 5.75 8.964844 C 6.011719 8.855469 6.28125 8.773438 6.558594 8.71875 C 6.835938 8.664062 7.117188 8.636719 7.402344 8.636719 C 7.683594 8.636719 7.964844 8.664062 8.242188 8.71875 C 8.523438 8.773438 8.792969 8.855469 9.054688 8.964844 C 9.316406 9.070312 9.5625 9.203125 9.800781 9.363281 C 10.035156 9.519531 10.253906 9.699219 10.453125 9.898438 C 10.65625 10.101562 10.832031 10.316406 10.992188 10.554688 C 11.148438 10.789062 11.28125 11.039062 11.390625 11.300781 C 11.5 11.5625 11.582031 11.832031 11.636719 12.109375 C 11.691406 12.386719 11.71875 12.667969 11.71875 12.953125 Z M 11.71875 12.953125 " fill-opacity="1" fill-rule="nonzero"/><path fill="#ffffff" d="M 1.738281 16.691406 C 1.183594 17.265625 0.753906 17.921875 0.453125 18.660156 C 0.152344 19.402344 0 20.171875 0 20.96875 L 0 23.4375 C 0 23.929688 0.09375 24.398438 0.28125 24.855469 C 0.46875 25.308594 0.738281 25.707031 1.082031 26.054688 C 1.429688 26.402344 1.832031 26.667969 2.285156 26.855469 C 2.738281 27.042969 3.210938 27.136719 3.699219 27.136719 L 6.167969 27.136719 L 6.167969 23.4375 C 6.171875 22.164062 6.390625 20.933594 6.820312 19.738281 C 5.785156 19.640625 4.824219 19.328125 3.933594 18.792969 C 3.042969 18.257812 2.3125 17.558594 1.738281 16.691406 Z M 1.738281 16.691406 " fill-opacity="1" fill-rule="nonzero"/><g clip-path="url(#ee25acf485)"><path fill="#ffffff" d="M 25.089844 16.675781 C 24.683594 17.15625 24.234375 17.585938 23.734375 17.964844 C 23.234375 18.34375 22.703125 18.664062 22.132812 18.929688 C 21.5625 19.191406 20.972656 19.390625 20.363281 19.527344 C 19.75 19.660156 19.128906 19.730469 18.503906 19.730469 C 17.875 19.730469 17.257812 19.660156 16.644531 19.527344 C 16.03125 19.390625 15.441406 19.191406 14.875 18.929688 C 14.304688 18.664062 13.769531 18.34375 13.273438 17.964844 C 12.773438 17.585938 12.320312 17.15625 11.917969 16.675781 C 10.882812 17.496094 10.078125 18.496094 9.5 19.683594 C 8.925781 20.867188 8.636719 22.121094 8.636719 23.4375 L 8.636719 28.371094 C 8.636719 28.863281 8.730469 29.335938 8.917969 29.789062 C 9.105469 30.242188 9.371094 30.640625 9.71875 30.988281 C 10.066406 31.335938 10.464844 31.601562 10.917969 31.789062 C 11.371094 31.976562 11.84375 32.074219 12.335938 32.074219 L 24.671875 32.074219 C 25.160156 32.074219 25.632812 31.976562 26.085938 31.789062 C 26.539062 31.601562 26.941406 31.335938 27.289062 30.988281 C 27.636719 30.640625 27.902344 30.242188 28.089844 29.789062 C 28.277344 29.335938 28.371094 28.863281 28.371094 28.371094 L 28.371094 23.4375 C 28.371094 22.121094 28.082031 20.867188 27.503906 19.683594 C 26.929688 18.496094 26.125 17.496094 25.089844 16.675781 Z M 25.089844 16.675781 " fill-opacity="1" fill-rule="nonzero"/></g><g clip-path="url(#b30e61e901)"><path fill="#ffffff" d="M 24.671875 11.101562 C 24.671875 11.507812 24.632812 11.90625 24.550781 12.304688 C 24.472656 12.703125 24.355469 13.089844 24.203125 13.460938 C 24.046875 13.835938 23.855469 14.191406 23.632812 14.527344 C 23.40625 14.867188 23.152344 15.175781 22.863281 15.464844 C 22.578125 15.75 22.265625 16.003906 21.929688 16.230469 C 21.59375 16.457031 21.238281 16.644531 20.863281 16.800781 C 20.488281 16.957031 20.105469 17.070312 19.707031 17.152344 C 19.308594 17.230469 18.910156 17.269531 18.503906 17.269531 C 18.097656 17.269531 17.695312 17.230469 17.300781 17.152344 C 16.902344 17.070312 16.515625 16.957031 16.144531 16.800781 C 15.769531 16.644531 15.414062 16.457031 15.078125 16.230469 C 14.738281 16.003906 14.429688 15.75 14.140625 15.464844 C 13.855469 15.175781 13.601562 14.867188 13.375 14.527344 C 13.148438 14.191406 12.960938 13.835938 12.804688 13.460938 C 12.648438 13.089844 12.53125 12.703125 12.453125 12.304688 C 12.375 11.90625 12.335938 11.507812 12.335938 11.101562 C 12.335938 10.695312 12.375 10.296875 12.453125 9.898438 C 12.53125 9.5 12.648438 9.117188 12.804688 8.742188 C 12.960938 8.367188 13.148438 8.011719 13.375 7.675781 C 13.601562 7.339844 13.855469 7.027344 14.140625 6.742188 C 14.429688 6.453125 14.738281 6.199219 15.078125 5.972656 C 15.414062 5.75 15.769531 5.558594 16.144531 5.402344 C 16.515625 5.25 16.902344 5.132812 17.300781 5.050781 C 17.695312 4.972656 18.097656 4.933594 18.503906 4.933594 C 18.910156 4.933594 19.308594 4.972656 19.707031 5.050781 C 20.105469 5.132812 20.488281 5.25 20.863281 5.402344 C 21.238281 5.558594 21.59375 5.75 21.929688 5.972656 C 22.265625 6.199219 22.578125 6.453125 22.863281 6.742188 C 23.152344 7.027344 23.40625 7.339844 23.632812 7.675781 C 23.855469 8.011719 24.046875 8.367188 24.203125 8.742188 C 24.355469 9.117188 24.472656 9.5 24.550781 9.898438 C 24.632812 10.296875 24.671875 10.695312 24.671875 11.101562 Z M 24.671875 11.101562 " fill-opacity="1" fill-rule="nonzero"/></g></svg>