<svg xmlns="http://www.w3.org/2000/svg" xmlns:xlink="http://www.w3.org/1999/xlink" width="50" zoomAndPan="magnify" viewBox="0 0 37.5 37.499999" height="50" preserveAspectRatio="xMidYMid meet" version="1.0"><defs><clipPath id="d3ede9f9bf"><path d="M 1.15625 2 L 35.941406 2 L 35.941406 37 L 1.15625 37 Z M 1.15625 2 " clip-rule="nonzero"/></clipPath></defs><path fill="#ffffff" d="M 15.527344 23.710938 L 9.730469 25.265625 C 9.464844 25.339844 9.25 25.644531 9.25 25.949219 L 9.25 29.566406 C 9.25 29.871094 9.464844 30.0625 9.730469 29.992188 L 15.523438 28.441406 L 15.523438 27.101562 L 10.71875 28.390625 L 10.71875 26.335938 L 15.523438 25.046875 Z M 27.511719 20.542969 C 27.453125 20.53125 27.390625 20.53125 27.324219 20.550781 L 23.625 21.542969 L 25.179688 22.464844 L 26.34375 22.148438 L 26.34375 23.152344 L 27.808594 24.023438 L 27.808594 20.980469 C 27.808594 20.75 27.6875 20.585938 27.511719 20.542969 Z M 27.511719 20.542969 " fill-opacity="1" fill-rule="evenodd"/><g clip-path="url(#d3ede9f9bf)"><path fill="#ffffff" d="M 9.496094 9.082031 L 4.769531 10.351562 C 2.832031 10.867188 1.242188 12.875 1.242188 14.820312 L 1.242188 33.769531 C 1.242188 35.710938 2.832031 36.871094 4.769531 36.351562 L 15.980469 33.347656 C 15.640625 32.867188 15.515625 32.511719 15.515625 32 L 4.769531 34.875 C 3.617188 35.1875 2.71875 34.523438 2.71875 33.375 L 2.71875 14.425781 C 2.71875 13.277344 3.617188 12.132812 4.769531 11.820312 L 9.496094 10.558594 Z M 33.335938 2.855469 C 33.003906 2.839844 32.652344 2.878906 32.289062 2.976562 L 27.566406 4.242188 L 27.566406 5.714844 L 32.289062 4.449219 C 33.441406 4.140625 34.34375 4.800781 34.34375 5.953125 L 34.34375 24.902344 C 34.34375 26.050781 33.441406 27.191406 32.289062 27.503906 L 30.886719 27.878906 L 30.125 29.558594 L 32.289062 28.976562 C 34.230469 28.457031 35.820312 26.445312 35.820312 24.503906 L 35.820312 5.558594 C 35.820312 3.976562 34.769531 2.917969 33.335938 2.855469 Z M 33.335938 2.855469 " fill-opacity="1" fill-rule="evenodd"/></g><path fill="#ffffff" d="M 18.53125 0.488281 C 14.664062 1.519531 11.535156 5.492188 11.535156 9.355469 C 11.535156 11.210938 12.269531 12.796875 13.582031 13.753906 C 14.894531 14.714844 16.675781 14.976562 18.53125 14.480469 C 20.386719 13.980469 22.167969 12.765625 23.480469 11.105469 C 24.792969 9.4375 25.527344 7.464844 25.527344 5.605469 C 25.527344 3.75 24.792969 2.167969 23.476562 1.207031 C 22.164062 0.25 20.386719 -0.0117188 18.53125 0.488281 Z M 18.71875 3.324219 C 18.839844 3.296875 18.957031 3.28125 19.074219 3.28125 C 20.027344 3.253906 20.613281 4.066406 20.386719 5.089844 C 20.160156 6.117188 19.199219 6.972656 18.246094 6.996094 C 17.289062 7.023438 16.703125 6.210938 16.929688 5.183594 C 17.125 4.300781 17.875 3.519531 18.71875 3.324219 Z M 16.878906 8.601562 L 20.1875 7.714844 C 20.953125 7.503906 21.644531 7.816406 21.867188 8.457031 L 22.140625 9.257812 C 22.417969 10.074219 21.722656 10.773438 20.753906 11.28125 C 19.28125 12.054688 17.816406 12.449219 16.3125 12.46875 C 15.339844 12.488281 14.640625 12.160156 14.921875 11.195312 L 15.199219 10.242188 C 15.417969 9.484375 16.105469 8.804688 16.878906 8.601562 Z M 16.878906 8.601562 " fill-opacity="1" fill-rule="evenodd"/><path fill="#ffffff" d="M 27.511719 13.632812 C 27.453125 13.621094 27.390625 13.621094 27.324219 13.636719 L 9.730469 18.351562 C 9.464844 18.425781 9.253906 18.734375 9.253906 19.039062 L 9.253906 22.652344 C 9.253906 22.957031 9.464844 23.148438 9.730469 23.078125 L 15.691406 21.480469 L 16.425781 19.949219 L 10.71875 21.476562 L 10.71875 19.425781 L 26.347656 15.238281 L 26.347656 17.289062 L 19.53125 19.117188 L 21.085938 20.039062 L 27.324219 18.367188 C 27.589844 18.292969 27.808594 17.988281 27.808594 17.683594 L 27.808594 14.066406 C 27.808594 13.835938 27.6875 13.671875 27.511719 13.632812 Z M 27.511719 13.632812 " fill-opacity="1" fill-rule="evenodd"/><path fill="#ffffff" d="M 18.882812 21.671875 L 27.992188 26.816406 L 25.578125 27.59375 C 25.242188 27.703125 25.085938 28.097656 25.261719 28.40625 L 27.894531 33.054688 L 25.082031 33.863281 L 22.105469 28.933594 C 21.976562 28.714844 21.710938 28.609375 21.46875 28.683594 L 18.902344 29.460938 Z M 17.828125 20.332031 L 16.9375 22.199219 C 16.902344 22.269531 16.886719 22.347656 16.886719 22.429688 L 16.875 32.074219 C 16.867188 32.453125 17.234375 32.730469 17.59375 32.621094 L 20.476562 31.753906 L 23.453125 36.683594 C 23.585938 36.898438 23.847656 37 24.09375 36.925781 L 27.996094 35.804688 C 28.152344 35.757812 28.277344 35.648438 28.347656 35.503906 L 29.21875 33.671875 C 29.320312 33.5 29.320312 33.292969 29.21875 33.117188 L 27.34375 29.890625 L 28.503906 29.578125 C 28.65625 29.535156 28.765625 29.363281 28.828125 29.222656 L 29.710938 27.273438 L 29.714844 27.269531 C 29.714844 27.269531 29.714844 27.265625 29.71875 27.257812 C 29.832031 27.015625 29.761719 26.726562 29.546875 26.566406 L 18.671875 20.117188 C 18.300781 19.894531 17.96875 20.042969 17.828125 20.332031 Z M 17.828125 20.332031 " fill-opacity="1" fill-rule="nonzero"/></svg>