<svg xmlns="http://www.w3.org/2000/svg" xmlns:xlink="http://www.w3.org/1999/xlink" width="50" zoomAndPan="magnify" viewBox="0 0 37.5 37.499999" height="50" preserveAspectRatio="xMidYMid meet" version="1.0"><defs><clipPath id="5e08d3b891"><path d="M 0 0 L 37.007812 0 L 37.007812 37.007812 L 0 37.007812 Z M 0 0 " clip-rule="nonzero"/></clipPath></defs><path fill="#ffffff" d="M 3.09375 33.914062 L 5.140625 33.914062 L 5.140625 26.667969 L 3.09375 26.667969 L 3.09375 33.914062 " fill-opacity="1" fill-rule="nonzero"/><path fill="#ffffff" d="M 14.117188 13.96875 L 16.175781 13.96875 L 16.175781 16.015625 L 14.117188 16.015625 Z M 14.117188 9.878906 L 16.175781 9.878906 L 16.175781 11.921875 L 14.117188 11.921875 Z M 14.132812 5.785156 L 16.175781 5.785156 L 16.175781 7.832031 L 14.132812 7.832031 Z M 18.238281 13.96875 L 22.890625 13.96875 L 22.890625 16.015625 L 18.238281 16.015625 Z M 18.238281 9.878906 L 22.890625 9.878906 L 22.890625 11.921875 L 18.238281 11.921875 Z M 18.238281 5.785156 L 22.890625 5.785156 L 22.890625 7.832031 L 18.238281 7.832031 Z M 12.046875 18.707031 L 24.960938 18.707031 L 24.960938 3.09375 L 12.046875 3.09375 L 12.046875 18.707031 " fill-opacity="1" fill-rule="nonzero"/><g clip-path="url(#5e08d3b891)"><path fill="#ffffff" d="M 34.945312 29.015625 L 29.542969 34.417969 C 28.550781 35.414062 27.230469 35.960938 25.824219 35.960938 L 17.933594 35.960938 C 17.378906 35.960938 16.835938 35.871094 16.3125 35.695312 L 10.8125 33.855469 L 7.183594 33.855469 L 7.183594 35.960938 L 1.046875 35.960938 L 1.046875 24.621094 L 8.90625 24.621094 C 10.542969 23.4375 12.476562 22.8125 14.515625 22.8125 C 16.296875 22.8125 18.023438 23.300781 19.53125 24.226562 L 22.007812 24.226562 C 24.171875 24.226562 26.035156 25.539062 26.84375 27.414062 L 30.050781 24.125 C 31.402344 22.777344 33.597656 22.777344 34.945312 24.125 C 35.597656 24.777344 35.960938 25.644531 35.960938 26.570312 C 35.960938 27.496094 35.597656 28.363281 34.945312 29.015625 Z M 10 20.753906 L 10 1.046875 L 27.007812 1.046875 L 27.007812 20.753906 Z M 35.6875 23.382812 C 34.835938 22.535156 33.703125 22.066406 32.5 22.066406 C 31.292969 22.066406 30.160156 22.535156 29.304688 23.394531 L 27.050781 25.699219 C 25.875 24.132812 24.019531 23.179688 22.007812 23.179688 L 19.816406 23.179688 C 18.453125 22.390625 16.925781 21.925781 15.355469 21.800781 L 27.007812 21.800781 C 27.585938 21.800781 28.054688 21.332031 28.054688 20.753906 L 28.054688 1.046875 C 28.054688 0.46875 27.585938 0 27.007812 0 L 10 0 C 9.722656 0 9.457031 0.109375 9.261719 0.308594 C 9.0625 0.503906 8.953125 0.769531 8.953125 1.046875 L 8.953125 20.753906 C 8.953125 21.332031 9.421875 21.800781 10 21.800781 L 13.648438 21.800781 C 11.824219 21.945312 10.089844 22.550781 8.574219 23.574219 L 1.046875 23.574219 C 0.46875 23.574219 0 24.042969 0 24.621094 L 0 35.960938 C 0 36.539062 0.46875 37.007812 1.046875 37.007812 L 7.183594 37.007812 C 7.761719 37.007812 8.230469 36.539062 8.230469 35.960938 L 8.230469 34.90625 L 10.640625 34.90625 L 15.976562 36.6875 C 16.609375 36.898438 17.265625 37.007812 17.933594 37.007812 L 25.824219 37.007812 C 27.511719 37.007812 29.09375 36.351562 30.285156 35.160156 L 35.683594 29.757812 C 36.539062 28.910156 37.007812 27.777344 37.007812 26.570312 C 37.007812 25.367188 36.539062 24.234375 35.6875 23.382812 " fill-opacity="1" fill-rule="nonzero"/></g><path fill="#ffffff" d="M 31.503906 25.566406 L 26.675781 30.511719 L 17.1875 30.511719 L 17.1875 28.464844 L 25.054688 28.464844 C 24.628906 27.191406 23.421875 26.269531 22.007812 26.269531 L 18.925781 26.269531 L 18.667969 26.101562 C 17.433594 25.289062 16 24.855469 14.515625 24.855469 C 12.816406 24.855469 11.210938 25.40625 9.875 26.449219 L 9.597656 26.667969 L 7.183594 26.667969 L 7.183594 31.8125 L 11.144531 31.8125 L 16.960938 33.753906 C 17.273438 33.859375 17.601562 33.914062 17.933594 33.914062 L 25.824219 33.914062 C 26.683594 33.914062 27.492188 33.578125 28.097656 32.972656 L 33.5 27.570312 C 33.765625 27.304688 33.914062 26.949219 33.914062 26.570312 C 33.914062 26.191406 33.765625 25.839844 33.5 25.570312 C 32.949219 25.019531 32.054688 25.019531 31.503906 25.566406 " fill-opacity="1" fill-rule="nonzero"/></svg>