<svg xmlns="http://www.w3.org/2000/svg" xmlns:xlink="http://www.w3.org/1999/xlink" width="50" zoomAndPan="magnify" viewBox="0 0 37.5 37.499999" height="50" preserveAspectRatio="xMidYMid meet" version="1.0"><path fill="#ffffff" d="M 17.75 36.953125 C 17.171875 36.953125 16.589844 36.921875 16.011719 36.867188 C 15.433594 36.808594 14.859375 36.722656 14.289062 36.609375 C 13.71875 36.496094 13.152344 36.355469 12.597656 36.1875 C 12.042969 36.019531 11.496094 35.824219 10.957031 35.601562 C 10.421875 35.378906 9.894531 35.128906 9.382812 34.855469 C 8.871094 34.582031 8.371094 34.28125 7.886719 33.960938 C 7.402344 33.636719 6.9375 33.292969 6.488281 32.921875 C 6.039062 32.554688 5.609375 32.164062 5.199219 31.753906 C 4.785156 31.339844 4.394531 30.910156 4.027344 30.460938 C 3.660156 30.011719 3.3125 29.546875 2.988281 29.0625 C 2.667969 28.578125 2.367188 28.082031 2.09375 27.566406 C 1.820312 27.054688 1.570312 26.53125 1.347656 25.992188 C 1.125 25.457031 0.929688 24.910156 0.761719 24.351562 C 0.59375 23.796875 0.453125 23.230469 0.339844 22.660156 C 0.226562 22.089844 0.140625 21.515625 0.0820312 20.9375 C 0.0273438 20.359375 -0.00390625 19.78125 -0.00390625 19.199219 L 2.257812 19.199219 C 2.257812 27.742188 9.207031 34.691406 17.75 34.691406 C 26.292969 34.691406 33.246094 27.742188 33.246094 19.199219 C 33.246094 10.65625 26.292969 3.707031 17.75 3.707031 C 15.890625 3.703125 14.085938 4.03125 12.34375 4.679688 C 10.597656 5.328125 9.023438 6.261719 7.613281 7.480469 L 6.132812 5.773438 C 6.675781 5.304688 7.238281 4.871094 7.832031 4.472656 C 8.421875 4.074219 9.039062 3.710938 9.671875 3.386719 C 10.308594 3.0625 10.960938 2.777344 11.632812 2.53125 C 12.300781 2.285156 12.984375 2.082031 13.679688 1.917969 C 14.375 1.753906 15.074219 1.632812 15.785156 1.554688 C 16.496094 1.472656 17.207031 1.4375 17.917969 1.445312 C 18.632812 1.453125 19.34375 1.5 20.050781 1.59375 C 20.761719 1.6875 21.460938 1.820312 22.152344 1.996094 C 22.84375 2.175781 23.519531 2.390625 24.1875 2.652344 C 24.851562 2.910156 25.5 3.207031 26.128906 3.542969 C 26.757812 3.882812 27.363281 4.253906 27.949219 4.664062 C 28.53125 5.074219 29.089844 5.519531 29.621094 5.996094 C 30.152344 6.472656 30.652344 6.980469 31.121094 7.515625 C 31.589844 8.054688 32.027344 8.617188 32.429688 9.207031 C 32.832031 9.796875 33.195312 10.410156 33.523438 11.042969 C 33.851562 11.679688 34.140625 12.332031 34.386719 13 C 34.636719 13.667969 34.847656 14.347656 35.011719 15.042969 C 35.179688 15.738281 35.304688 16.4375 35.386719 17.148438 C 35.46875 17.855469 35.507812 18.570312 35.503906 19.28125 C 35.503906 19.996094 35.457031 20.707031 35.367188 21.414062 C 35.277344 22.125 35.144531 22.824219 34.972656 23.515625 C 34.800781 24.207031 34.585938 24.886719 34.328125 25.554688 C 34.074219 26.222656 33.777344 26.871094 33.445312 27.5 C 33.109375 28.132812 32.742188 28.738281 32.332031 29.324219 C 31.925781 29.914062 31.484375 30.472656 31.011719 31.003906 C 30.535156 31.539062 30.03125 32.039062 29.496094 32.511719 C 28.960938 32.984375 28.398438 33.421875 27.808594 33.828125 C 27.222656 34.230469 26.613281 34.601562 25.980469 34.929688 C 25.347656 35.261719 24.695312 35.554688 24.027344 35.804688 C 23.359375 36.058594 22.679688 36.269531 21.988281 36.4375 C 21.292969 36.609375 20.59375 36.738281 19.886719 36.824219 C 19.175781 36.910156 18.464844 36.953125 17.75 36.953125 Z M 17.75 36.953125 " fill-opacity="1" fill-rule="nonzero"/><path fill="#ffffff" d="M 3 9.824219 L 4.09375 7.007812 L 5.183594 4.191406 L 7.078125 6.542969 L 8.972656 8.898438 L 5.988281 9.359375 Z M 3 9.824219 " fill-opacity="1" fill-rule="nonzero"/><path fill="#ffffff" d="M 1.238281 11.242188 L 4.835938 1.957031 L 11.082031 9.714844 Z M 5.53125 6.425781 L 4.761719 8.40625 L 6.863281 8.082031 Z M 5.53125 6.425781 " fill-opacity="1" fill-rule="nonzero"/></svg>