<svg xmlns="http://www.w3.org/2000/svg" xmlns:xlink="http://www.w3.org/1999/xlink" width="50" zoomAndPan="magnify" viewBox="0 0 37.5 37.499999" height="50" preserveAspectRatio="xMidYMid meet" version="1.0"><defs><clipPath id="1c89ecaccb"><path d="M 0 0 L 37.007812 0 L 37.007812 37.007812 L 0 37.007812 Z M 0 0 " clip-rule="nonzero"/></clipPath></defs><g clip-path="url(#1c89ecaccb)"><path fill="#ffffff" d="M 18.503906 0 C 8.300781 0 0 8.300781 0 18.503906 C 0 28.707031 8.300781 37.007812 18.503906 37.007812 C 22.71875 37.007812 26.839844 35.550781 30.109375 32.90625 C 30.640625 32.480469 30.722656 31.703125 30.292969 31.171875 C 29.863281 30.644531 29.085938 30.5625 28.558594 30.988281 C 25.726562 33.277344 22.15625 34.539062 18.503906 34.539062 C 9.660156 34.539062 2.464844 27.347656 2.464844 18.503906 C 2.464844 9.660156 9.660156 2.46875 18.503906 2.46875 C 27.34375 2.46875 34.539062 9.660156 34.539062 18.503906 C 34.539062 22.15625 33.277344 25.726562 30.988281 28.558594 C 30.5625 29.085938 30.644531 29.863281 31.171875 30.292969 C 31.703125 30.71875 32.480469 30.636719 32.90625 30.109375 C 35.550781 26.839844 37.007812 22.71875 37.007812 18.503906 C 37.007812 8.300781 28.707031 0 18.503906 0 Z M 18.503906 0 " fill-opacity="1" fill-rule="nonzero"/></g><path fill="#ffffff" d="M 18.503906 24.644531 C 19.183594 24.644531 19.738281 24.089844 19.738281 23.410156 L 19.738281 19.738281 L 23.410156 19.738281 C 24.089844 19.738281 24.644531 19.183594 24.644531 18.503906 C 24.644531 17.824219 24.089844 17.269531 23.410156 17.269531 L 19.738281 17.269531 L 19.738281 13.597656 C 19.738281 12.914062 19.183594 12.363281 18.503906 12.363281 C 17.824219 12.363281 17.269531 12.914062 17.269531 13.597656 L 17.269531 17.269531 L 13.597656 17.269531 C 12.914062 17.269531 12.363281 17.824219 12.363281 18.503906 C 12.363281 19.183594 12.914062 19.738281 13.597656 19.738281 L 17.269531 19.738281 L 17.269531 23.410156 C 17.269531 24.089844 17.824219 24.644531 18.503906 24.644531 Z M 18.503906 24.644531 " fill-opacity="1" fill-rule="nonzero"/></svg>