<svg xmlns="http://www.w3.org/2000/svg" xmlns:xlink="http://www.w3.org/1999/xlink" width="50" zoomAndPan="magnify" viewBox="0 0 37.5 37.499999" height="50" preserveAspectRatio="xMidYMid meet" version="1.0"><defs><clipPath id="55f28dbf65"><path d="M 4.210938 0 L 33 0 L 33 37 L 4.210938 37 Z M 4.210938 0 " clip-rule="nonzero"/></clipPath></defs><g clip-path="url(#55f28dbf65)"><path fill="#ffffff" d="M 18.5 0.00390625 C 18.296875 0.0078125 18.121094 0.0703125 17.964844 0.199219 L 13.15625 4.210938 L 8.414062 4.210938 C 6.101562 4.210938 4.210938 6.101562 4.210938 8.414062 L 4.210938 32.796875 C 4.210938 35.109375 6.101562 37 8.414062 37 L 28.59375 37 C 30.90625 37 32.796875 35.109375 32.796875 32.796875 L 32.796875 8.414062 C 32.796875 6.101562 30.90625 4.210938 28.59375 4.210938 L 23.851562 4.210938 L 19.042969 0.199219 C 18.882812 0.0703125 18.703125 0.00390625 18.5 0.00390625 Z M 18.503906 1.941406 L 23.007812 5.695312 C 23.164062 5.824219 23.34375 5.890625 23.546875 5.890625 L 28.59375 5.890625 C 29.996094 5.890625 31.117188 7.011719 31.117188 8.414062 L 31.117188 32.796875 C 31.117188 34.199219 29.996094 35.320312 28.59375 35.320312 L 8.414062 35.320312 C 7.011719 35.320312 5.890625 34.199219 5.890625 32.796875 L 5.890625 8.414062 C 5.890625 7.011719 7.011719 5.890625 8.414062 5.890625 L 13.457031 5.890625 C 13.660156 5.890625 13.839844 5.824219 13.996094 5.695312 Z M 11.355469 10.515625 C 11.1875 10.515625 11.027344 10.546875 10.875 10.613281 C 10.71875 10.675781 10.582031 10.765625 10.464844 10.886719 C 10.347656 11.003906 10.253906 11.140625 10.191406 11.292969 C 10.128906 11.449219 10.09375 11.609375 10.09375 11.777344 C 10.09375 11.945312 10.128906 12.105469 10.191406 12.257812 C 10.253906 12.414062 10.347656 12.550781 10.464844 12.667969 C 10.582031 12.785156 10.71875 12.878906 10.875 12.941406 C 11.027344 13.007812 11.1875 13.039062 11.355469 13.039062 C 11.523438 13.039062 11.683594 13.007812 11.839844 12.941406 C 11.992188 12.878906 12.128906 12.785156 12.25 12.667969 C 12.367188 12.550781 12.457031 12.414062 12.523438 12.257812 C 12.585938 12.105469 12.617188 11.945312 12.617188 11.777344 C 12.617188 11.609375 12.585938 11.449219 12.523438 11.292969 C 12.457031 11.140625 12.367188 11.003906 12.25 10.886719 C 12.128906 10.765625 11.992188 10.675781 11.839844 10.613281 C 11.683594 10.546875 11.523438 10.515625 11.355469 10.515625 Z M 15.980469 10.9375 C 15.746094 10.933594 15.546875 11.011719 15.378906 11.179688 C 15.210938 11.34375 15.128906 11.542969 15.128906 11.777344 C 15.128906 12.011719 15.210938 12.210938 15.378906 12.375 C 15.546875 12.539062 15.746094 12.621094 15.980469 12.617188 L 26.070312 12.617188 C 26.304688 12.621094 26.507812 12.539062 26.671875 12.375 C 26.839844 12.210938 26.921875 12.011719 26.921875 11.777344 C 26.921875 11.542969 26.839844 11.34375 26.671875 11.179688 C 26.507812 11.011719 26.304688 10.933594 26.070312 10.9375 Z M 11.355469 16.402344 C 11.1875 16.402344 11.027344 16.433594 10.875 16.496094 C 10.71875 16.5625 10.582031 16.652344 10.464844 16.769531 C 10.347656 16.890625 10.253906 17.023438 10.191406 17.179688 C 10.128906 17.335938 10.09375 17.496094 10.09375 17.664062 C 10.09375 17.828125 10.128906 17.992188 10.191406 18.144531 C 10.253906 18.300781 10.347656 18.4375 10.464844 18.554688 C 10.582031 18.671875 10.71875 18.765625 10.875 18.828125 C 11.027344 18.890625 11.1875 18.921875 11.355469 18.921875 C 11.523438 18.921875 11.683594 18.890625 11.839844 18.828125 C 11.992188 18.765625 12.128906 18.671875 12.25 18.554688 C 12.367188 18.4375 12.457031 18.300781 12.523438 18.144531 C 12.585938 17.992188 12.617188 17.828125 12.617188 17.664062 C 12.617188 17.496094 12.585938 17.335938 12.523438 17.179688 C 12.457031 17.023438 12.367188 16.890625 12.25 16.769531 C 12.128906 16.652344 11.992188 16.5625 11.839844 16.496094 C 11.683594 16.433594 11.523438 16.402344 11.355469 16.402344 Z M 15.980469 16.820312 C 15.746094 16.816406 15.546875 16.898438 15.378906 17.0625 C 15.210938 17.226562 15.128906 17.429688 15.128906 17.664062 C 15.128906 17.898438 15.210938 18.097656 15.378906 18.261719 C 15.546875 18.425781 15.746094 18.507812 15.980469 18.503906 L 26.070312 18.503906 C 26.304688 18.507812 26.507812 18.425781 26.671875 18.261719 C 26.839844 18.097656 26.921875 17.898438 26.921875 17.664062 C 26.921875 17.429688 26.839844 17.226562 26.671875 17.0625 C 26.507812 16.898438 26.304688 16.816406 26.070312 16.820312 Z M 11.355469 22.285156 C 11.1875 22.285156 11.027344 22.320312 10.875 22.382812 C 10.71875 22.445312 10.582031 22.539062 10.464844 22.65625 C 10.347656 22.773438 10.253906 22.910156 10.191406 23.066406 C 10.128906 23.21875 10.09375 23.382812 10.09375 23.546875 C 10.09375 23.714844 10.128906 23.875 10.191406 24.03125 C 10.253906 24.183594 10.347656 24.320312 10.464844 24.441406 C 10.582031 24.558594 10.71875 24.648438 10.875 24.714844 C 11.027344 24.777344 11.1875 24.808594 11.355469 24.808594 C 11.523438 24.808594 11.683594 24.777344 11.839844 24.714844 C 11.992188 24.648438 12.128906 24.558594 12.25 24.441406 C 12.367188 24.320312 12.457031 24.183594 12.523438 24.03125 C 12.585938 23.875 12.617188 23.714844 12.617188 23.546875 C 12.617188 23.382812 12.585938 23.21875 12.523438 23.066406 C 12.457031 22.910156 12.367188 22.773438 12.25 22.65625 C 12.128906 22.539062 11.992188 22.445312 11.839844 22.382812 C 11.683594 22.320312 11.523438 22.285156 11.355469 22.285156 Z M 15.980469 22.707031 C 15.746094 22.703125 15.546875 22.785156 15.378906 22.949219 C 15.210938 23.113281 15.128906 23.3125 15.128906 23.546875 C 15.128906 23.78125 15.210938 23.980469 15.378906 24.148438 C 15.546875 24.3125 15.746094 24.390625 15.980469 24.390625 L 26.070312 24.390625 C 26.304688 24.390625 26.507812 24.3125 26.671875 24.148438 C 26.839844 23.980469 26.921875 23.78125 26.921875 23.546875 C 26.921875 23.3125 26.839844 23.113281 26.671875 22.949219 C 26.507812 22.785156 26.304688 22.703125 26.070312 22.707031 Z M 11.355469 28.171875 C 11.1875 28.171875 11.027344 28.203125 10.875 28.269531 C 10.71875 28.332031 10.582031 28.421875 10.464844 28.542969 C 10.347656 28.660156 10.253906 28.796875 10.191406 28.953125 C 10.128906 29.105469 10.09375 29.265625 10.09375 29.433594 C 10.09375 29.601562 10.128906 29.761719 10.191406 29.917969 C 10.253906 30.070312 10.347656 30.207031 10.464844 30.324219 C 10.582031 30.445312 10.71875 30.535156 10.875 30.597656 C 11.027344 30.664062 11.1875 30.695312 11.355469 30.695312 C 11.523438 30.695312 11.683594 30.664062 11.839844 30.597656 C 11.992188 30.535156 12.128906 30.445312 12.25 30.324219 C 12.367188 30.207031 12.457031 30.070312 12.523438 29.917969 C 12.585938 29.761719 12.617188 29.601562 12.617188 29.433594 C 12.617188 29.265625 12.585938 29.105469 12.523438 28.953125 C 12.457031 28.796875 12.367188 28.660156 12.25 28.542969 C 12.128906 28.421875 11.992188 28.332031 11.839844 28.269531 C 11.683594 28.203125 11.523438 28.171875 11.355469 28.171875 Z M 15.980469 28.59375 C 15.746094 28.589844 15.546875 28.671875 15.378906 28.835938 C 15.210938 29 15.128906 29.199219 15.128906 29.433594 C 15.128906 29.667969 15.210938 29.867188 15.378906 30.03125 C 15.546875 30.199219 15.746094 30.277344 15.980469 30.273438 L 26.070312 30.273438 C 26.304688 30.277344 26.507812 30.199219 26.671875 30.03125 C 26.839844 29.867188 26.921875 29.667969 26.921875 29.433594 C 26.921875 29.199219 26.839844 29 26.671875 28.835938 C 26.507812 28.671875 26.304688 28.589844 26.070312 28.59375 Z M 15.980469 28.59375 " fill-opacity="1" fill-rule="nonzero"/></g></svg>