<svg xmlns="http://www.w3.org/2000/svg" xmlns:xlink="http://www.w3.org/1999/xlink" width="50" zoomAndPan="magnify" viewBox="0 0 37.5 37.499999" height="50" preserveAspectRatio="xMidYMid meet" version="1.0"><defs><clipPath id="c7e7dfb7f9"><path d="M 4.625 0 L 32.75 0 L 32.75 37 L 4.625 37 Z M 4.625 0 " clip-rule="nonzero"/></clipPath></defs><g clip-path="url(#c7e7dfb7f9)"><path fill="#ffffff" d="M 30.441406 4.304688 L 25.46875 4.304688 L 25.46875 2.023438 C 25.46875 1.757812 25.417969 1.507812 25.316406 1.265625 C 25.214844 1.023438 25.074219 0.808594 24.886719 0.625 C 24.703125 0.4375 24.488281 0.296875 24.246094 0.195312 C 24.003906 0.09375 23.753906 0.0429688 23.492188 0.0429688 L 13.582031 0.0429688 C 13.320312 0.0429688 13.066406 0.09375 12.824219 0.195312 C 12.582031 0.296875 12.371094 0.4375 12.183594 0.625 C 12 0.808594 11.855469 1.023438 11.753906 1.265625 C 11.65625 1.507812 11.605469 1.757812 11.605469 2.023438 L 11.605469 4.304688 L 6.628906 4.304688 C 6.367188 4.304688 6.117188 4.355469 5.875 4.457031 C 5.632812 4.558594 5.417969 4.699219 5.230469 4.886719 C 5.046875 5.070312 4.902344 5.285156 4.804688 5.527344 C 4.703125 5.769531 4.652344 6.019531 4.652344 6.28125 L 4.652344 7.734375 C 4.660156 8.035156 4.730469 8.320312 4.863281 8.59375 C 5 8.863281 5.183594 9.09375 5.417969 9.28125 C 5.652344 9.472656 5.914062 9.605469 6.207031 9.679688 C 6.5 9.753906 6.792969 9.765625 7.089844 9.710938 L 8.257812 33.824219 C 8.277344 34.25 8.375 34.652344 8.550781 35.039062 C 8.726562 35.421875 8.96875 35.761719 9.277344 36.054688 C 9.582031 36.347656 9.933594 36.570312 10.328125 36.726562 C 10.71875 36.886719 11.128906 36.964844 11.550781 36.960938 L 25.519531 36.960938 C 25.945312 36.964844 26.351562 36.882812 26.746094 36.726562 C 27.140625 36.570312 27.488281 36.347656 27.796875 36.054688 C 28.101562 35.761719 28.34375 35.421875 28.519531 35.039062 C 28.695312 34.652344 28.792969 34.25 28.8125 33.824219 L 29.980469 9.710938 C 30.277344 9.765625 30.570312 9.753906 30.863281 9.679688 C 31.15625 9.605469 31.421875 9.472656 31.65625 9.28125 C 31.890625 9.09375 32.074219 8.863281 32.207031 8.59375 C 32.339844 8.320312 32.410156 8.035156 32.417969 7.734375 L 32.417969 6.28125 C 32.417969 6.019531 32.367188 5.769531 32.269531 5.527344 C 32.167969 5.285156 32.023438 5.070312 31.839844 4.886719 C 31.65625 4.699219 31.441406 4.558594 31.199219 4.457031 C 30.957031 4.355469 30.703125 4.304688 30.441406 4.304688 Z M 12.921875 2.023438 C 12.921875 1.839844 12.988281 1.683594 13.117188 1.554688 C 13.246094 1.425781 13.398438 1.363281 13.582031 1.363281 L 23.492188 1.363281 C 23.671875 1.363281 23.828125 1.425781 23.957031 1.554688 C 24.085938 1.683594 24.148438 1.839844 24.148438 2.023438 L 24.148438 4.304688 L 12.921875 4.304688 Z M 27.496094 33.761719 C 27.484375 34.015625 27.425781 34.257812 27.320312 34.488281 C 27.214844 34.71875 27.070312 34.921875 26.886719 35.097656 C 26.703125 35.273438 26.492188 35.410156 26.257812 35.503906 C 26.019531 35.597656 25.773438 35.644531 25.519531 35.644531 L 11.550781 35.644531 C 11.296875 35.644531 11.050781 35.597656 10.816406 35.503906 C 10.582031 35.410156 10.371094 35.273438 10.1875 35.097656 C 10.003906 34.921875 9.859375 34.71875 9.753906 34.488281 C 9.648438 34.257812 9.589844 34.015625 9.578125 33.761719 L 8.414062 9.710938 L 28.660156 9.710938 Z M 31.101562 7.734375 C 31.101562 7.914062 31.039062 8.070312 30.910156 8.199219 C 30.78125 8.328125 30.625 8.390625 30.441406 8.394531 L 6.628906 8.394531 C 6.449219 8.390625 6.292969 8.328125 6.164062 8.199219 C 6.035156 8.070312 5.972656 7.914062 5.972656 7.734375 L 5.972656 6.28125 C 5.972656 6.101562 6.035156 5.945312 6.164062 5.816406 C 6.292969 5.6875 6.449219 5.625 6.628906 5.625 L 30.441406 5.625 C 30.625 5.625 30.78125 5.6875 30.910156 5.816406 C 31.039062 5.945312 31.101562 6.101562 31.101562 6.28125 Z M 31.101562 7.734375 " fill-opacity="1" fill-rule="nonzero"/></g><path fill="#ffffff" d="M 18.535156 30.148438 C 18.71875 30.148438 18.875 30.085938 19.003906 29.957031 C 19.132812 29.828125 19.195312 29.671875 19.195312 29.492188 L 19.195312 15.863281 C 19.195312 15.683594 19.132812 15.527344 19.003906 15.398438 C 18.875 15.269531 18.71875 15.207031 18.535156 15.207031 C 18.355469 15.207031 18.199219 15.269531 18.070312 15.398438 C 17.941406 15.527344 17.878906 15.683594 17.878906 15.863281 L 17.878906 29.492188 C 17.878906 29.671875 17.941406 29.828125 18.070312 29.957031 C 18.199219 30.085938 18.355469 30.148438 18.535156 30.148438 Z M 18.535156 30.148438 " fill-opacity="1" fill-rule="nonzero"/><path fill="#ffffff" d="M 23.808594 30.148438 C 23.992188 30.148438 24.148438 30.085938 24.277344 29.957031 C 24.40625 29.828125 24.46875 29.671875 24.46875 29.492188 L 24.46875 15.863281 C 24.46875 15.683594 24.40625 15.527344 24.277344 15.398438 C 24.148438 15.269531 23.992188 15.207031 23.808594 15.207031 C 23.628906 15.207031 23.472656 15.269531 23.34375 15.398438 C 23.214844 15.527344 23.152344 15.683594 23.152344 15.863281 L 23.152344 29.492188 C 23.152344 29.671875 23.214844 29.828125 23.34375 29.957031 C 23.472656 30.085938 23.628906 30.148438 23.808594 30.148438 Z M 23.808594 30.148438 " fill-opacity="1" fill-rule="nonzero"/><path fill="#ffffff" d="M 13.261719 30.148438 C 13.445312 30.148438 13.597656 30.085938 13.726562 29.957031 C 13.855469 29.828125 13.921875 29.671875 13.921875 29.492188 L 13.921875 15.863281 C 13.921875 15.683594 13.855469 15.527344 13.726562 15.398438 C 13.597656 15.269531 13.445312 15.207031 13.261719 15.207031 C 13.082031 15.207031 12.925781 15.269531 12.796875 15.398438 C 12.667969 15.527344 12.601562 15.683594 12.601562 15.863281 L 12.601562 29.492188 C 12.601562 29.671875 12.667969 29.828125 12.796875 29.957031 C 12.925781 30.085938 13.082031 30.148438 13.261719 30.148438 Z M 13.261719 30.148438 " fill-opacity="1" fill-rule="nonzero"/></svg>