<svg xmlns="http://www.w3.org/2000/svg" xmlns:xlink="http://www.w3.org/1999/xlink" width="50" zoomAndPan="magnify" viewBox="0 0 37.5 37.499999" height="50" preserveAspectRatio="xMidYMid meet" version="1.0"><defs><clipPath id="edd964c878"><path d="M 0 0.738281 L 25 0.738281 L 25 36.265625 L 0 36.265625 Z M 0 0.738281 " clip-rule="nonzero"/></clipPath></defs><path fill="#ffffff" d="M 36.929688 17.644531 C 36.929688 17.496094 36.878906 17.347656 36.832031 17.199219 C 36.78125 17.152344 36.734375 17.054688 36.683594 17.003906 C 36.636719 16.957031 36.636719 16.90625 36.585938 16.855469 L 30.34375 10.566406 C 29.902344 10.125 29.214844 10.125 28.773438 10.566406 C 28.332031 11.011719 28.332031 11.84375 28.773438 12.289062 L 33.144531 16.808594 L 11.378906 16.808594 C 10.789062 16.808594 10.25 17.300781 10.25 17.9375 C 10.25 18.527344 10.738281 19.070312 11.378906 19.070312 L 33.144531 19.070312 L 28.773438 23.34375 C 28.332031 23.785156 28.332031 24.425781 28.773438 24.867188 C 29.214844 25.308594 29.902344 25.257812 30.34375 24.816406 L 36.636719 18.527344 C 36.683594 18.480469 36.734375 18.429688 36.734375 18.332031 C 36.78125 18.28125 36.832031 18.234375 36.832031 18.132812 C 36.929688 17.9375 36.929688 17.789062 36.929688 17.644531 Z M 36.929688 17.644531 " fill-opacity="1" fill-rule="nonzero"/><g clip-path="url(#edd964c878)"><path fill="#ffffff" d="M 22.285156 25.40625 L 22.285156 34.054688 L 2.289062 34.054688 L 2.289062 2.953125 L 22.285156 2.953125 L 22.285156 11.058594 L 24.5 11.058594 L 24.5 2.953125 C 24.5 1.722656 23.5625 0.738281 22.433594 0.738281 L 2.140625 0.738281 C 1.011719 0.738281 0.078125 1.722656 0.078125 2.953125 L 0.078125 34.054688 C 0.078125 35.285156 1.011719 36.265625 2.140625 36.265625 L 22.433594 36.265625 C 23.5625 36.265625 24.496094 35.285156 24.496094 34.054688 L 24.496094 25.40625 Z M 22.285156 25.40625 " fill-opacity="1" fill-rule="nonzero"/></g></svg>