<svg xmlns="http://www.w3.org/2000/svg" xmlns:xlink="http://www.w3.org/1999/xlink" width="50" zoomAndPan="magnify" viewBox="0 0 37.5 37.499999" height="50" preserveAspectRatio="xMidYMid meet" version="1.0"><defs><clipPath id="26390b8e60"><path d="M 0.332031 0.332031 L 36.597656 0.332031 L 36.597656 36.597656 L 0.332031 36.597656 Z M 0.332031 0.332031 " clip-rule="nonzero"/></clipPath></defs><g clip-path="url(#26390b8e60)"><path fill="#ffffff" d="M 18.5 0.332031 C 8.484375 0.332031 0.332031 8.484375 0.332031 18.5 C 0.332031 28.519531 8.484375 36.667969 18.5 36.667969 C 28.519531 36.667969 36.667969 28.519531 36.667969 18.5 C 36.667969 8.484375 28.519531 0.332031 18.5 0.332031 Z M 18.5 34.105469 C 9.898438 34.105469 2.894531 27.105469 2.894531 18.5 C 2.894531 9.898438 9.898438 2.894531 18.5 2.894531 C 27.105469 2.894531 34.105469 9.898438 34.105469 18.5 C 34.105469 27.105469 27.105469 34.105469 18.5 34.105469 Z M 23.351562 11.617188 L 14.476562 18.453125 L 23.359375 25.386719 C 23.914062 25.824219 24.015625 26.625 23.582031 27.183594 C 23.328125 27.507812 22.953125 27.679688 22.570312 27.679688 C 22.292969 27.679688 22.019531 27.59375 21.78125 27.40625 L 11.59375 19.457031 C 11.28125 19.214844 11.097656 18.839844 11.097656 18.441406 C 11.097656 18.046875 11.285156 17.671875 11.601562 17.433594 L 21.789062 9.589844 C 22.351562 9.160156 23.15625 9.265625 23.589844 9.824219 C 24.015625 10.382812 23.910156 11.191406 23.351562 11.617188 Z M 23.351562 11.617188 " fill-opacity="1" fill-rule="nonzero"/></g></svg>