<svg xmlns="http://www.w3.org/2000/svg" xmlns:xlink="http://www.w3.org/1999/xlink" width="50" zoomAndPan="magnify" viewBox="0 0 37.5 37.499999" height="50" preserveAspectRatio="xMidYMid meet" version="1.0"><defs><clipPath id="5741f6f2ef"><path d="M 0 2.84375 L 37 2.84375 L 37 33.929688 L 0 33.929688 Z M 0 2.84375 " clip-rule="nonzero"/></clipPath></defs><g clip-path="url(#5741f6f2ef)"><path fill="#ffffff" d="M 31.367188 14.988281 C 26.742188 9.980469 20.203125 9.230469 17.28125 9.160156 L 17.28125 3.179688 C 17.28125 3.054688 17.214844 2.941406 17.105469 2.882812 C 16.996094 2.824219 16.863281 2.832031 16.761719 2.902344 L 0.152344 14.207031 C 0.0625 14.269531 0.0078125 14.371094 0.0078125 14.480469 C 0.0078125 14.59375 0.0625 14.695312 0.152344 14.757812 L 16.761719 26.0625 C 16.863281 26.128906 16.996094 26.136719 17.105469 26.082031 C 17.214844 26.023438 17.28125 25.910156 17.28125 25.785156 L 17.28125 19.847656 C 30.183594 19.605469 35.738281 33.800781 35.792969 33.949219 C 35.84375 34.078125 35.96875 34.160156 36.105469 34.160156 C 36.121094 34.160156 36.136719 34.160156 36.152344 34.15625 C 36.308594 34.136719 36.425781 34.007812 36.433594 33.851562 C 37.007812 25.59375 35.300781 19.246094 31.367188 14.988281 Z M 31.367188 14.988281 " fill-opacity="1" fill-rule="nonzero"/></g></svg>