<svg xmlns="http://www.w3.org/2000/svg" xmlns:xlink="http://www.w3.org/1999/xlink" width="50" zoomAndPan="magnify" viewBox="0 0 37.5 37.499999" height="50" preserveAspectRatio="xMidYMid meet" version="1.0"><defs><clipPath id="ba718e0a47"><path d="M 1 0.605469 L 37 0.605469 L 37 36.132812 L 1 36.132812 Z M 1 0.605469 " clip-rule="nonzero"/></clipPath></defs><g clip-path="url(#ba718e0a47)"><path fill="#ffffff" d="M 26.851562 24.527344 C 29.070312 21.925781 30.285156 18.65625 30.285156 15.199219 C 30.285156 11.34375 28.785156 7.71875 26.058594 4.996094 C 23.332031 2.269531 19.707031 0.765625 15.851562 0.765625 C 11.996094 0.765625 8.371094 2.269531 5.644531 4.996094 C 0.0195312 10.621094 0.0195312 19.777344 5.644531 25.40625 C 8.371094 28.132812 11.996094 29.632812 15.851562 29.632812 C 19.308594 29.632812 22.578125 28.417969 25.179688 26.199219 L 34.871094 35.890625 C 35.101562 36.121094 35.402344 36.238281 35.707031 36.238281 C 36.007812 36.238281 36.3125 36.121094 36.542969 35.890625 C 37.003906 35.429688 37.003906 34.679688 36.542969 34.21875 Z M 7.316406 23.734375 C 2.613281 19.027344 2.613281 11.371094 7.316406 6.667969 C 12.023438 1.960938 19.679688 1.960938 24.386719 6.667969 C 26.664062 8.945312 27.921875 11.976562 27.921875 15.199219 C 27.921875 18.421875 26.664062 21.453125 24.386719 23.734375 C 19.679688 28.441406 12.023438 28.4375 7.316406 23.734375 Z M 7.316406 23.734375 " fill-opacity="1" fill-rule="nonzero"/></g></svg>