<svg xmlns="http://www.w3.org/2000/svg" xmlns:xlink="http://www.w3.org/1999/xlink" width="50" zoomAndPan="magnify" viewBox="0 0 37.5 37.499999" height="50" preserveAspectRatio="xMidYMid meet" version="1.0"><defs><clipPath id="a47070b1d9"><path d="M 0 0 L 37.007812 0 L 37.007812 37.007812 L 0 37.007812 Z M 0 0 " clip-rule="nonzero"/></clipPath></defs><path fill="#ffffff" d="M 7.144531 26.796875 L 29.859375 26.796875 L 29.859375 10.207031 L 7.144531 10.207031 Z M 8.421875 25.523438 L 8.421875 12.191406 L 18.503906 19.285156 L 28.585938 12.191406 L 28.585938 25.523438 Z M 9.636719 11.484375 L 27.367188 11.484375 L 18.503906 17.722656 Z M 9.636719 11.484375 " fill-opacity="1" fill-rule="nonzero"/><g clip-path="url(#a47070b1d9)"><path fill="#ffffff" d="M 18.503906 0 C 17.898438 0 17.292969 0.03125 16.691406 0.0898438 C 16.085938 0.148438 15.488281 0.238281 14.894531 0.355469 C 14.300781 0.472656 13.710938 0.621094 13.132812 0.796875 C 12.550781 0.972656 11.980469 1.175781 11.421875 1.410156 C 10.863281 1.640625 10.316406 1.898438 9.78125 2.183594 C 9.246094 2.46875 8.726562 2.78125 8.222656 3.117188 C 7.71875 3.453125 7.234375 3.816406 6.765625 4.199219 C 6.296875 4.585938 5.847656 4.992188 5.417969 5.417969 C 4.992188 5.847656 4.585938 6.296875 4.199219 6.765625 C 3.816406 7.234375 3.453125 7.71875 3.117188 8.222656 C 2.78125 8.726562 2.46875 9.246094 2.183594 9.78125 C 1.898438 10.316406 1.640625 10.863281 1.410156 11.421875 C 1.175781 11.980469 0.972656 12.550781 0.796875 13.132812 C 0.621094 13.710938 0.472656 14.300781 0.355469 14.894531 C 0.238281 15.488281 0.148438 16.085938 0.0898438 16.691406 C 0.03125 17.292969 0 17.898438 0 18.503906 C 0 19.109375 0.03125 19.714844 0.0898438 20.316406 C 0.148438 20.921875 0.238281 21.519531 0.355469 22.113281 C 0.472656 22.707031 0.621094 23.292969 0.796875 23.875 C 0.972656 24.453125 1.175781 25.023438 1.410156 25.585938 C 1.640625 26.144531 1.898438 26.691406 2.183594 27.226562 C 2.46875 27.761719 2.78125 28.277344 3.117188 28.78125 C 3.453125 29.285156 3.816406 29.773438 4.199219 30.242188 C 4.585938 30.710938 4.992188 31.160156 5.417969 31.585938 C 5.847656 32.015625 6.296875 32.421875 6.765625 32.804688 C 7.234375 33.191406 7.71875 33.550781 8.222656 33.886719 C 8.726562 34.226562 9.246094 34.535156 9.78125 34.820312 C 10.316406 35.105469 10.863281 35.367188 11.421875 35.597656 C 11.980469 35.828125 12.550781 36.035156 13.132812 36.210938 C 13.710938 36.386719 14.300781 36.53125 14.894531 36.652344 C 15.488281 36.769531 16.085938 36.859375 16.691406 36.917969 C 17.292969 36.976562 17.898438 37.007812 18.503906 37.007812 C 19.109375 37.007812 19.714844 36.976562 20.316406 36.917969 C 20.921875 36.859375 21.519531 36.769531 22.113281 36.652344 C 22.707031 36.53125 23.292969 36.386719 23.875 36.210938 C 24.453125 36.035156 25.023438 35.828125 25.585938 35.597656 C 26.144531 35.367188 26.691406 35.105469 27.226562 34.820312 C 27.761719 34.535156 28.277344 34.226562 28.78125 33.886719 C 29.285156 33.550781 29.773438 33.191406 30.242188 32.804688 C 30.710938 32.421875 31.160156 32.015625 31.585938 31.585938 C 32.015625 31.160156 32.421875 30.710938 32.804688 30.242188 C 33.191406 29.773438 33.550781 29.285156 33.886719 28.78125 C 34.226562 28.277344 34.535156 27.761719 34.820312 27.226562 C 35.105469 26.691406 35.367188 26.144531 35.597656 25.585938 C 35.828125 25.023438 36.035156 24.453125 36.210938 23.875 C 36.386719 23.292969 36.53125 22.707031 36.652344 22.113281 C 36.769531 21.519531 36.859375 20.921875 36.917969 20.316406 C 36.976562 19.714844 37.007812 19.109375 37.007812 18.503906 C 37.007812 17.898438 36.976562 17.292969 36.914062 16.691406 C 36.855469 16.085938 36.765625 15.488281 36.648438 14.894531 C 36.527344 14.300781 36.382812 13.714844 36.207031 13.132812 C 36.027344 12.554688 35.824219 11.984375 35.59375 11.425781 C 35.359375 10.867188 35.101562 10.320312 34.816406 9.785156 C 34.53125 9.25 34.21875 8.730469 33.882812 8.226562 C 33.546875 7.726562 33.183594 7.238281 32.800781 6.769531 C 32.414062 6.300781 32.007812 5.855469 31.582031 5.425781 C 31.152344 4.996094 30.703125 4.589844 30.234375 4.207031 C 29.769531 3.820312 29.28125 3.460938 28.777344 3.125 C 28.273438 2.789062 27.753906 2.476562 27.222656 2.191406 C 26.6875 1.90625 26.140625 1.644531 25.582031 1.414062 C 25.019531 1.183594 24.453125 0.976562 23.871094 0.800781 C 23.292969 0.625 22.707031 0.476562 22.113281 0.359375 C 21.515625 0.242188 20.917969 0.152344 20.316406 0.0898438 C 19.714844 0.03125 19.109375 0 18.503906 0 Z M 18.503906 35.730469 C 17.9375 35.730469 17.375 35.703125 16.816406 35.648438 C 16.253906 35.59375 15.695312 35.507812 15.140625 35.398438 C 14.589844 35.289062 14.042969 35.152344 13.503906 34.988281 C 12.960938 34.824219 12.433594 34.636719 11.910156 34.417969 C 11.390625 34.203125 10.878906 33.960938 10.382812 33.695312 C 9.886719 33.429688 9.402344 33.140625 8.933594 32.828125 C 8.464844 32.515625 8.011719 32.179688 7.574219 31.820312 C 7.136719 31.460938 6.722656 31.082031 6.320312 30.683594 C 5.921875 30.285156 5.542969 29.867188 5.1875 29.433594 C 4.828125 28.996094 4.492188 28.542969 4.179688 28.074219 C 3.867188 27.605469 3.578125 27.121094 3.308594 26.625 C 3.042969 26.125 2.804688 25.617188 2.585938 25.097656 C 2.371094 24.574219 2.183594 24.042969 2.019531 23.503906 C 1.855469 22.964844 1.71875 22.417969 1.605469 21.863281 C 1.496094 21.3125 1.414062 20.753906 1.359375 20.191406 C 1.304688 19.628906 1.277344 19.066406 1.277344 18.503906 C 1.277344 17.9375 1.304688 17.375 1.359375 16.816406 C 1.414062 16.253906 1.496094 15.695312 1.605469 15.140625 C 1.71875 14.589844 1.855469 14.042969 2.019531 13.503906 C 2.183594 12.960938 2.371094 12.433594 2.585938 11.910156 C 2.804688 11.390625 3.042969 10.878906 3.308594 10.382812 C 3.578125 9.886719 3.867188 9.402344 4.179688 8.933594 C 4.492188 8.464844 4.828125 8.011719 5.1875 7.574219 C 5.542969 7.136719 5.921875 6.722656 6.320312 6.320312 C 6.722656 5.921875 7.136719 5.542969 7.574219 5.1875 C 8.011719 4.828125 8.464844 4.492188 8.933594 4.179688 C 9.402344 3.867188 9.886719 3.578125 10.382812 3.308594 C 10.878906 3.042969 11.390625 2.804688 11.910156 2.585938 C 12.433594 2.371094 12.960938 2.183594 13.503906 2.019531 C 14.042969 1.855469 14.589844 1.71875 15.140625 1.605469 C 15.695312 1.496094 16.253906 1.414062 16.816406 1.359375 C 17.375 1.304688 17.9375 1.277344 18.503906 1.277344 C 19.066406 1.277344 19.628906 1.304688 20.191406 1.359375 C 20.753906 1.414062 21.3125 1.496094 21.863281 1.605469 C 22.417969 1.71875 22.964844 1.855469 23.503906 2.019531 C 24.042969 2.183594 24.574219 2.371094 25.097656 2.585938 C 25.617188 2.804688 26.125 3.042969 26.625 3.308594 C 27.121094 3.578125 27.605469 3.867188 28.074219 4.179688 C 28.542969 4.492188 28.996094 4.828125 29.433594 5.1875 C 29.867188 5.542969 30.285156 5.921875 30.683594 6.320312 C 31.082031 6.722656 31.460938 7.136719 31.820312 7.574219 C 32.179688 8.011719 32.515625 8.464844 32.828125 8.933594 C 33.140625 9.402344 33.429688 9.886719 33.695312 10.382812 C 33.960938 10.878906 34.203125 11.390625 34.417969 11.910156 C 34.636719 12.433594 34.824219 12.960938 34.988281 13.503906 C 35.152344 14.042969 35.289062 14.589844 35.398438 15.140625 C 35.507812 15.695312 35.59375 16.253906 35.648438 16.816406 C 35.703125 17.375 35.730469 17.9375 35.730469 18.503906 C 35.730469 19.066406 35.703125 19.628906 35.644531 20.191406 C 35.589844 20.753906 35.507812 21.308594 35.394531 21.863281 C 35.285156 22.414062 35.148438 22.960938 34.984375 23.5 C 34.820312 24.042969 34.628906 24.570312 34.414062 25.09375 C 34.199219 25.613281 33.957031 26.121094 33.691406 26.621094 C 33.425781 27.117188 33.136719 27.601562 32.820312 28.070312 C 32.507812 28.539062 32.171875 28.992188 31.8125 29.425781 C 31.457031 29.863281 31.078125 30.28125 30.679688 30.679688 C 30.28125 31.078125 29.863281 31.457031 29.425781 31.8125 C 28.992188 32.171875 28.539062 32.507812 28.070312 32.820312 C 27.601562 33.136719 27.117188 33.425781 26.621094 33.691406 C 26.121094 33.957031 25.613281 34.199219 25.09375 34.414062 C 24.570312 34.628906 24.042969 34.820312 23.5 34.984375 C 22.960938 35.148438 22.414062 35.285156 21.863281 35.394531 C 21.308594 35.507812 20.753906 35.589844 20.191406 35.644531 C 19.628906 35.703125 19.066406 35.730469 18.503906 35.730469 Z M 18.503906 35.730469 " fill-opacity="1" fill-rule="nonzero"/></g></svg>