<svg xmlns="http://www.w3.org/2000/svg" xmlns:xlink="http://www.w3.org/1999/xlink" width="50" zoomAndPan="magnify" viewBox="0 0 37.5 37.499999" height="50" preserveAspectRatio="xMidYMid meet" version="1.0"><defs><clipPath id="ebb4ee748c"><path d="M 0 3.46875 L 37.007812 3.46875 L 37.007812 33.816406 L 0 33.816406 Z M 0 3.46875 " clip-rule="nonzero"/></clipPath></defs><g clip-path="url(#ebb4ee748c)"><path fill="#ffffff" d="M 2.890625 27.753906 L 7.515625 27.753906 L 7.515625 32.957031 C 7.515625 33.304688 7.75 33.539062 8.09375 33.539062 L 28.910156 33.539062 C 29.257812 33.539062 29.488281 33.304688 29.488281 32.957031 L 29.488281 27.753906 L 34.117188 27.753906 C 35.675781 27.753906 37.007812 26.484375 37.007812 24.863281 L 37.007812 13.878906 C 37.007812 12.257812 35.734375 10.984375 34.117188 10.984375 L 31.800781 10.984375 L 31.800781 7.515625 C 31.800781 7.171875 31.570312 6.9375 31.222656 6.9375 L 29.488281 6.9375 L 29.488281 4.046875 C 29.488281 3.699219 29.257812 3.46875 28.910156 3.46875 L 8.09375 3.46875 C 7.75 3.46875 7.515625 3.699219 7.515625 4.046875 L 7.515625 6.9375 L 5.78125 6.9375 C 5.433594 6.9375 5.203125 7.171875 5.203125 7.515625 L 5.203125 10.984375 L 2.890625 10.984375 C 1.328125 10.984375 0 12.257812 0 13.878906 L 0 24.863281 C 0 26.484375 1.328125 27.753906 2.890625 27.753906 Z M 8.671875 4.625 L 28.332031 4.625 L 28.332031 11.566406 C 28.332031 11.910156 28.566406 12.144531 28.910156 12.144531 C 29.257812 12.144531 29.488281 11.910156 29.488281 11.566406 L 29.488281 8.09375 L 30.644531 8.09375 L 30.644531 14.457031 L 8.671875 14.457031 Z M 6.359375 8.09375 L 7.515625 8.09375 L 7.515625 14.457031 L 6.359375 14.457031 Z M 1.214844 13.878906 C 1.214844 12.953125 1.964844 12.144531 2.949219 12.144531 L 5.261719 12.144531 L 5.261719 14.457031 L 4.046875 14.457031 C 3.699219 14.457031 3.46875 14.6875 3.46875 15.035156 C 3.46875 15.378906 3.699219 15.613281 4.046875 15.613281 L 32.957031 15.613281 C 33.304688 15.613281 33.539062 15.378906 33.539062 15.035156 C 33.539062 14.6875 33.304688 14.457031 32.957031 14.457031 L 31.800781 14.457031 L 31.800781 12.144531 L 34.117188 12.144531 C 35.039062 12.144531 35.851562 12.894531 35.851562 13.878906 L 35.851562 24.863281 C 35.851562 25.789062 35.097656 26.597656 34.117188 26.597656 L 29.488281 26.597656 L 29.488281 24.863281 C 29.488281 24.515625 29.257812 24.285156 28.910156 24.285156 C 28.566406 24.285156 28.332031 24.515625 28.332031 24.863281 L 28.332031 32.378906 L 8.671875 32.378906 L 8.671875 21.972656 L 28.332031 21.972656 L 28.332031 22.550781 C 28.332031 22.898438 28.566406 23.128906 28.910156 23.128906 C 29.257812 23.128906 29.488281 22.898438 29.488281 22.550781 L 29.488281 21.394531 C 29.488281 21.046875 29.257812 20.816406 28.910156 20.816406 L 8.09375 20.816406 C 7.75 20.816406 7.515625 21.046875 7.515625 21.394531 L 7.515625 26.597656 L 2.890625 26.597656 C 1.964844 26.597656 1.15625 25.847656 1.15625 24.863281 Z M 1.214844 13.878906 " fill-opacity="1" fill-rule="nonzero"/></g><path fill="#ffffff" d="M 4.105469 19.082031 C 4.277344 19.082031 4.394531 19.023438 4.511719 18.90625 C 4.625 18.792969 4.683594 18.675781 4.683594 18.503906 C 4.683594 18.328125 4.625 18.214844 4.511719 18.097656 C 4.277344 17.867188 3.933594 17.867188 3.699219 18.097656 C 3.585938 18.214844 3.527344 18.328125 3.527344 18.503906 C 3.527344 18.675781 3.585938 18.792969 3.699219 18.90625 C 3.757812 19.023438 3.933594 19.082031 4.105469 19.082031 Z M 4.105469 19.082031 " fill-opacity="1" fill-rule="nonzero"/><path fill="#ffffff" d="M 31.222656 19.082031 C 31.398438 19.082031 31.511719 19.023438 31.628906 18.90625 C 31.746094 18.792969 31.800781 18.617188 31.800781 18.503906 C 31.800781 18.328125 31.746094 18.214844 31.628906 18.097656 C 31.398438 17.867188 31.050781 17.867188 30.820312 18.097656 C 30.703125 18.214844 30.644531 18.328125 30.644531 18.503906 C 30.644531 18.675781 30.703125 18.792969 30.820312 18.90625 C 30.933594 19.023438 31.050781 19.082031 31.222656 19.082031 Z M 31.222656 19.082031 " fill-opacity="1" fill-rule="nonzero"/><path fill="#ffffff" d="M 25.441406 26.597656 L 11.566406 26.597656 C 11.21875 26.597656 10.984375 26.828125 10.984375 27.175781 C 10.984375 27.523438 11.21875 27.753906 11.566406 27.753906 L 25.441406 27.753906 C 25.789062 27.753906 26.019531 27.523438 26.019531 27.175781 C 26.019531 26.828125 25.789062 26.597656 25.441406 26.597656 Z M 25.441406 26.597656 " fill-opacity="1" fill-rule="nonzero"/><path fill="#ffffff" d="M 25.441406 29.488281 L 24.285156 29.488281 C 23.9375 29.488281 23.707031 29.722656 23.707031 30.066406 C 23.707031 30.414062 23.9375 30.644531 24.285156 30.644531 L 25.441406 30.644531 C 25.789062 30.644531 26.019531 30.414062 26.019531 30.066406 C 26.019531 29.722656 25.789062 29.488281 25.441406 29.488281 Z M 25.441406 29.488281 " fill-opacity="1" fill-rule="nonzero"/><path fill="#ffffff" d="M 20.816406 29.488281 L 11.566406 29.488281 C 11.21875 29.488281 10.984375 29.722656 10.984375 30.066406 C 10.984375 30.414062 11.21875 30.644531 11.566406 30.644531 L 20.816406 30.644531 C 21.164062 30.644531 21.394531 30.414062 21.394531 30.066406 C 21.394531 29.722656 21.164062 29.488281 20.816406 29.488281 Z M 20.816406 29.488281 " fill-opacity="1" fill-rule="nonzero"/><path fill="#ffffff" d="M 11.566406 24.863281 L 16.769531 24.863281 C 17.117188 24.863281 17.347656 24.632812 17.347656 24.285156 C 17.347656 23.9375 17.117188 23.707031 16.769531 23.707031 L 11.566406 23.707031 C 11.21875 23.707031 10.984375 23.9375 10.984375 24.285156 C 10.984375 24.632812 11.21875 24.863281 11.566406 24.863281 Z M 11.566406 24.863281 " fill-opacity="1" fill-rule="nonzero"/><path fill="#ffffff" d="M 25.441406 23.707031 L 20.238281 23.707031 C 19.890625 23.707031 19.660156 23.9375 19.660156 24.285156 C 19.660156 24.632812 19.890625 24.863281 20.238281 24.863281 L 25.441406 24.863281 C 25.789062 24.863281 26.019531 24.632812 26.019531 24.285156 C 26.019531 23.9375 25.789062 23.707031 25.441406 23.707031 Z M 25.441406 23.707031 " fill-opacity="1" fill-rule="nonzero"/><path fill="#ffffff" d="M 26.019531 19.082031 L 28.910156 19.082031 C 29.257812 19.082031 29.488281 18.851562 29.488281 18.503906 C 29.488281 18.15625 29.257812 17.925781 28.910156 17.925781 L 26.019531 17.925781 C 25.671875 17.925781 25.441406 18.15625 25.441406 18.503906 C 25.441406 18.851562 25.671875 19.082031 26.019531 19.082031 Z M 26.019531 19.082031 " fill-opacity="1" fill-rule="nonzero"/></svg>