<svg xmlns="http://www.w3.org/2000/svg" xmlns:xlink="http://www.w3.org/1999/xlink" width="50" zoomAndPan="magnify" viewBox="0 0 37.5 37.499999" height="50" preserveAspectRatio="xMidYMid meet" version="1.0"><defs><clipPath id="41c89da128"><path d="M 28 23 L 33 23 L 33 27.246094 L 28 27.246094 Z M 28 23 " clip-rule="nonzero"/></clipPath><clipPath id="001ae2e756"><path d="M 12 23 L 17 23 L 17 27.246094 L 12 27.246094 Z M 12 23 " clip-rule="nonzero"/></clipPath><clipPath id="152a28c30a"><path d="M 7 9.484375 L 28 9.484375 L 28 25 L 7 25 Z M 7 9.484375 " clip-rule="nonzero"/></clipPath></defs><path fill="#ffffff" d="M 33.800781 13.160156 L 28.128906 13.160156 L 25.960938 24.902344 L 27.414062 24.902344 C 27.476562 24.59375 27.582031 24.296875 27.730469 24.015625 C 28.113281 23.28125 28.695312 22.78125 29.476562 22.515625 C 30.25 22.242188 30.996094 22.296875 31.71875 22.679688 C 32.136719 22.90625 32.472656 23.214844 32.734375 23.609375 C 32.996094 24 33.152344 24.433594 33.199219 24.902344 L 35.273438 24.902344 L 36.992188 17.988281 Z M 28.835938 17.359375 L 29.382812 14.382812 L 32.988281 14.382812 L 34.957031 17.355469 Z M 28.835938 17.359375 " fill-opacity="1" fill-rule="nonzero"/><g clip-path="url(#41c89da128)"><path fill="#ffffff" d="M 31.28125 23.515625 C 31.011719 23.375 30.722656 23.304688 30.417969 23.304688 C 30.199219 23.304688 29.988281 23.339844 29.785156 23.40625 C 29.238281 23.59375 28.828125 23.945312 28.5625 24.460938 C 28.460938 24.695312 28.40625 24.9375 28.398438 25.195312 C 28.390625 25.449219 28.433594 25.699219 28.523438 25.9375 C 28.613281 26.175781 28.746094 26.390625 28.917969 26.578125 C 29.09375 26.765625 29.292969 26.914062 29.527344 27.023438 C 29.757812 27.128906 30 27.191406 30.257812 27.203125 C 30.511719 27.21875 30.761719 27.183594 31 27.097656 C 31.242188 27.015625 31.460938 26.886719 31.652344 26.71875 C 31.84375 26.550781 31.996094 26.351562 32.113281 26.125 C 32.226562 25.894531 32.292969 25.652344 32.3125 25.398438 C 32.332031 25.144531 32.304688 24.894531 32.226562 24.652344 C 32.148438 24.40625 32.027344 24.1875 31.863281 23.992188 C 31.699219 23.792969 31.507812 23.636719 31.28125 23.515625 Z M 31.28125 23.515625 " fill-opacity="1" fill-rule="nonzero"/></g><g clip-path="url(#001ae2e756)"><path fill="#ffffff" d="M 15.789062 23.515625 C 15.519531 23.375 15.230469 23.304688 14.925781 23.304688 C 14.707031 23.304688 14.496094 23.339844 14.292969 23.40625 C 13.746094 23.59375 13.335938 23.945312 13.070312 24.460938 C 12.96875 24.695312 12.914062 24.9375 12.90625 25.195312 C 12.898438 25.449219 12.941406 25.699219 13.03125 25.9375 C 13.121094 26.175781 13.253906 26.390625 13.425781 26.578125 C 13.601562 26.765625 13.804688 26.914062 14.035156 27.023438 C 14.265625 27.128906 14.507812 27.191406 14.765625 27.203125 C 15.019531 27.21875 15.269531 27.183594 15.507812 27.097656 C 15.75 27.015625 15.96875 26.886719 16.160156 26.71875 C 16.351562 26.550781 16.503906 26.351562 16.621094 26.125 C 16.734375 25.894531 16.800781 25.652344 16.820312 25.398438 C 16.839844 25.144531 16.8125 24.894531 16.734375 24.652344 C 16.65625 24.40625 16.535156 24.1875 16.371094 23.992188 C 16.210938 23.792969 16.015625 23.636719 15.789062 23.515625 Z M 15.789062 23.515625 " fill-opacity="1" fill-rule="nonzero"/></g><g clip-path="url(#152a28c30a)"><path fill="#ffffff" d="M 10.039062 9.554688 L 9.632812 11.765625 L 11.058594 11.765625 C 11.191406 11.765625 11.300781 11.8125 11.394531 11.90625 C 11.484375 11.996094 11.53125 12.109375 11.53125 12.238281 C 11.53125 12.371094 11.484375 12.480469 11.394531 12.574219 C 11.300781 12.664062 11.191406 12.710938 11.058594 12.710938 L 9.460938 12.710938 L 9.105469 14.648438 L 12.875 14.648438 C 13.007812 14.648438 13.117188 14.691406 13.210938 14.785156 C 13.300781 14.878906 13.347656 14.988281 13.347656 15.117188 C 13.347656 15.25 13.300781 15.359375 13.210938 15.453125 C 13.117188 15.542969 13.007812 15.589844 12.875 15.589844 L 8.929688 15.589844 L 8.609375 17.328125 L 11.273438 17.328125 C 11.402344 17.328125 11.511719 17.375 11.605469 17.464844 C 11.699219 17.558594 11.742188 17.667969 11.742188 17.800781 C 11.742188 17.929688 11.699219 18.042969 11.605469 18.132812 C 11.511719 18.226562 11.402344 18.273438 11.273438 18.273438 L 8.441406 18.273438 L 8.160156 19.777344 L 9.589844 19.777344 C 9.722656 19.777344 9.832031 19.824219 9.925781 19.914062 C 10.015625 20.007812 10.0625 20.121094 10.0625 20.25 C 10.0625 20.378906 10.015625 20.492188 9.925781 20.582031 C 9.832031 20.675781 9.722656 20.722656 9.589844 20.722656 L 7.992188 20.722656 L 7.226562 24.902344 L 11.921875 24.902344 C 11.988281 24.59375 12.09375 24.296875 12.238281 24.015625 C 12.621094 23.28125 13.203125 22.78125 13.984375 22.515625 C 14.757812 22.242188 15.507812 22.300781 16.234375 22.679688 C 16.648438 22.90625 16.984375 23.21875 17.246094 23.609375 C 17.507812 24.003906 17.660156 24.433594 17.710938 24.902344 L 25.003906 24.902344 L 27.820312 9.554688 Z M 10.039062 9.554688 " fill-opacity="1" fill-rule="nonzero"/></g><path fill="#ffffff" d="M 9.632812 11.765625 L 9.460938 12.710938 L 5.472656 12.710938 C 5.339844 12.710938 5.230469 12.664062 5.136719 12.574219 C 5.042969 12.480469 5 12.371094 5 12.238281 C 5 12.109375 5.042969 11.996094 5.136719 11.90625 C 5.230469 11.8125 5.339844 11.765625 5.472656 11.765625 Z M 9.632812 11.765625 " fill-opacity="1" fill-rule="nonzero"/><path fill="#ffffff" d="M 9.105469 14.648438 L 8.929688 15.589844 L 0.449219 15.589844 C 0.316406 15.589844 0.207031 15.542969 0.113281 15.453125 C 0.0234375 15.359375 -0.0234375 15.25 -0.0234375 15.117188 C -0.0234375 14.988281 0.0234375 14.878906 0.113281 14.785156 C 0.207031 14.691406 0.316406 14.648438 0.449219 14.648438 Z M 9.105469 14.648438 " fill-opacity="1" fill-rule="nonzero"/><path fill="#ffffff" d="M 8.609375 17.328125 L 8.441406 18.273438 L 2.507812 18.273438 C 2.375 18.273438 2.265625 18.226562 2.171875 18.132812 C 2.082031 18.042969 2.035156 17.929688 2.035156 17.800781 C 2.035156 17.667969 2.082031 17.558594 2.171875 17.464844 C 2.265625 17.375 2.375 17.328125 2.507812 17.328125 Z M 8.609375 17.328125 " fill-opacity="1" fill-rule="nonzero"/><path fill="#ffffff" d="M 8.160156 19.777344 L 8.070312 20.269531 C 8.070312 20.289062 8.066406 20.3125 8.0625 20.335938 L 7.992188 20.722656 L 5.003906 20.722656 C 4.875 20.722656 4.761719 20.675781 4.667969 20.582031 C 4.578125 20.492188 4.53125 20.378906 4.53125 20.25 C 4.53125 20.121094 4.578125 20.007812 4.667969 19.914062 C 4.761719 19.824219 4.875 19.777344 5.003906 19.777344 Z M 8.160156 19.777344 " fill-opacity="1" fill-rule="nonzero"/></svg>