<svg xmlns="http://www.w3.org/2000/svg" xmlns:xlink="http://www.w3.org/1999/xlink" width="50" zoomAndPan="magnify" viewBox="0 0 37.5 37.499999" height="50" preserveAspectRatio="xMidYMid meet" version="1.0"><defs><clipPath id="c93887d665"><path d="M 0 8.648438 L 37 8.648438 L 37 28.632812 L 0 28.632812 Z M 0 8.648438 " clip-rule="nonzero"/></clipPath></defs><g clip-path="url(#c93887d665)"><path fill="#ffffff" d="M 36.570312 17.6875 C 36.242188 17.316406 28.410156 8.699219 18.503906 8.699219 C 8.59375 8.699219 0.761719 17.316406 0.433594 17.6875 C 0.226562 17.917969 0.121094 18.191406 0.121094 18.503906 C 0.121094 18.816406 0.226562 19.089844 0.433594 19.320312 C 0.761719 19.6875 8.59375 28.304688 18.503906 28.304688 C 28.410156 28.304688 36.242188 19.6875 36.570312 19.320312 C 36.78125 19.089844 36.882812 18.816406 36.882812 18.503906 C 36.882812 18.191406 36.78125 17.917969 36.570312 17.6875 Z M 18.503906 25.855469 C 11.394531 25.855469 5.210938 20.570312 3.0625 18.503906 C 5.207031 16.433594 11.371094 11.152344 18.503906 11.152344 C 25.632812 11.152344 31.792969 16.433594 33.941406 18.503906 C 31.796875 20.574219 25.632812 25.855469 18.503906 25.855469 Z M 18.503906 25.855469 " fill-opacity="1" fill-rule="nonzero"/></g><path fill="#ffffff" d="M 12.375 18.503906 C 12.375 18.90625 12.414062 19.304688 12.492188 19.699219 C 12.574219 20.09375 12.6875 20.476562 12.84375 20.847656 C 12.996094 21.21875 13.183594 21.574219 13.410156 21.90625 C 13.632812 22.242188 13.886719 22.550781 14.171875 22.835938 C 14.457031 23.121094 14.765625 23.375 15.097656 23.597656 C 15.433594 23.820312 15.785156 24.011719 16.160156 24.164062 C 16.53125 24.316406 16.914062 24.433594 17.308594 24.511719 C 17.703125 24.589844 18.101562 24.628906 18.503906 24.628906 C 18.90625 24.628906 19.304688 24.589844 19.699219 24.511719 C 20.09375 24.433594 20.476562 24.316406 20.847656 24.164062 C 21.21875 24.011719 21.574219 23.820312 21.90625 23.597656 C 22.242188 23.375 22.550781 23.121094 22.835938 22.835938 C 23.121094 22.550781 23.375 22.242188 23.597656 21.90625 C 23.820312 21.574219 24.011719 21.21875 24.164062 20.847656 C 24.316406 20.476562 24.433594 20.09375 24.511719 19.699219 C 24.589844 19.304688 24.628906 18.90625 24.628906 18.503906 C 24.628906 18.101562 24.589844 17.703125 24.511719 17.308594 C 24.433594 16.914062 24.316406 16.53125 24.164062 16.160156 C 24.011719 15.785156 23.820312 15.433594 23.597656 15.097656 C 23.375 14.765625 23.121094 14.457031 22.835938 14.171875 C 22.550781 13.886719 22.242188 13.632812 21.90625 13.410156 C 21.574219 13.183594 21.21875 12.996094 20.847656 12.84375 C 20.476562 12.6875 20.09375 12.574219 19.699219 12.492188 C 19.304688 12.414062 18.90625 12.375 18.503906 12.375 C 18.101562 12.375 17.703125 12.417969 17.308594 12.496094 C 16.914062 12.574219 16.53125 12.691406 16.160156 12.84375 C 15.789062 13 15.433594 13.1875 15.101562 13.410156 C 14.765625 13.632812 14.457031 13.890625 14.171875 14.171875 C 13.890625 14.457031 13.632812 14.765625 13.410156 15.101562 C 13.1875 15.433594 13 15.789062 12.84375 16.160156 C 12.691406 16.53125 12.574219 16.914062 12.496094 17.308594 C 12.417969 17.703125 12.375 18.101562 12.375 18.503906 Z M 22.179688 18.503906 C 22.179688 18.992188 22.085938 19.460938 21.898438 19.910156 C 21.714844 20.359375 21.449219 20.757812 21.101562 21.101562 C 20.757812 21.449219 20.359375 21.714844 19.910156 21.898438 C 19.460938 22.085938 18.992188 22.179688 18.503906 22.179688 C 18.015625 22.179688 17.546875 22.085938 17.097656 21.898438 C 16.644531 21.714844 16.25 21.449219 15.902344 21.101562 C 15.558594 20.757812 15.292969 20.359375 15.105469 19.910156 C 14.921875 19.460938 14.828125 18.992188 14.828125 18.503906 C 14.828125 18.015625 14.921875 17.546875 15.105469 17.097656 C 15.292969 16.644531 15.558594 16.25 15.902344 15.902344 C 16.25 15.558594 16.644531 15.292969 17.097656 15.105469 C 17.546875 14.921875 18.015625 14.828125 18.503906 14.828125 C 18.992188 14.828125 19.460938 14.921875 19.910156 15.105469 C 20.359375 15.292969 20.757812 15.558594 21.101562 15.902344 C 21.449219 16.25 21.714844 16.644531 21.898438 17.097656 C 22.085938 17.546875 22.179688 18.015625 22.179688 18.503906 Z M 22.179688 18.503906 " fill-opacity="1" fill-rule="nonzero"/></svg>