<svg xmlns="http://www.w3.org/2000/svg" xmlns:xlink="http://www.w3.org/1999/xlink" width="50" zoomAndPan="magnify" viewBox="0 0 37.5 37.499999" height="50" preserveAspectRatio="xMidYMid meet" version="1.0"><defs><clipPath id="0c2ec58606"><path d="M 0 0 L 37.007812 0 L 37.007812 37.007812 L 0 37.007812 Z M 0 0 " clip-rule="nonzero"/></clipPath><clipPath id="3546e778f6"><path d="M 0 4.878906 L 37 4.878906 L 37 32.265625 L 0 32.265625 Z M 0 4.878906 " clip-rule="nonzero"/></clipPath></defs><g clip-path="url(#0c2ec58606)"><path fill="#ffffff" d="M 0 0 L 37.007812 0 L 37.007812 37.007812 L 0 37.007812 Z M 0 0 " fill-opacity="1" fill-rule="nonzero"/><path fill="#ffffff" d="M 0 0 L 37.007812 0 L 37.007812 37.007812 L 0 37.007812 Z M 0 0 " fill-opacity="1" fill-rule="nonzero"/></g><g clip-path="url(#3546e778f6)"><path fill="#000001" d="M 32.289062 4.882812 L 4.710938 4.882812 C 2.113281 4.882812 0 6.996094 0 9.59375 L 0 27.421875 C 0 30.019531 2.113281 32.132812 4.710938 32.132812 L 32.289062 32.132812 C 34.886719 32.132812 36.996094 30.019531 36.996094 27.421875 L 36.996094 9.59375 C 36.996094 6.996094 34.882812 4.882812 32.289062 4.882812 Z M 32.289062 6.585938 C 32.75 6.585938 33.183594 6.691406 33.578125 6.875 L 21.542969 17.546875 C 19.714844 19.167969 16.96875 19.15625 15.15625 17.515625 L 3.398438 6.886719 C 3.792969 6.695312 4.238281 6.585938 4.710938 6.585938 Z M 35.296875 27.421875 C 35.296875 29.082031 33.945312 30.429688 32.289062 30.429688 L 4.710938 30.429688 C 3.050781 30.429688 1.703125 29.082031 1.703125 27.421875 L 1.703125 9.59375 C 1.703125 9.027344 1.859375 8.496094 2.136719 8.042969 L 14.015625 18.78125 C 15.25 19.898438 16.808594 20.457031 18.367188 20.457031 C 19.925781 20.457031 21.441406 19.914062 22.671875 18.820312 L 34.851562 8.023438 C 35.132812 8.480469 35.296875 9.019531 35.296875 9.59375 L 35.296875 27.425781 Z M 35.296875 27.421875 " fill-opacity="1" fill-rule="nonzero"/></g></svg>