<svg xmlns="http://www.w3.org/2000/svg" xmlns:xlink="http://www.w3.org/1999/xlink" width="50" zoomAndPan="magnify" viewBox="0 0 37.5 37.499999" height="50" preserveAspectRatio="xMidYMid meet" version="1.0"><defs><clipPath id="1973f7b898"><path d="M 2 13 L 37.007812 13 L 37.007812 37.007812 L 2 37.007812 Z M 2 13 " clip-rule="nonzero"/></clipPath></defs><path fill="#ffffff" d="M 14.515625 26.078125 L 10.84375 26.078125 L 10.84375 25.386719 L 14.515625 25.386719 Z M 10.84375 24.125 L 13.253906 24.125 L 13.253906 24.8125 L 10.84375 24.8125 Z M 21.800781 22.632812 L 26.164062 22.632812 L 26.164062 26.078125 L 21.800781 26.078125 Z M 10.234375 9.035156 C 9.574219 9.035156 9.035156 9.574219 9.035156 10.234375 L 9.035156 26.773438 C 9.035156 27.433594 9.574219 27.96875 10.234375 27.96875 L 26.773438 27.96875 C 27.433594 27.96875 27.96875 27.433594 27.96875 26.773438 L 27.96875 10.234375 C 27.96875 9.574219 27.433594 9.035156 26.773438 9.035156 L 20.222656 9.035156 L 20.222656 13.871094 C 20.222656 14.035156 20.039062 14.128906 19.90625 14.035156 L 18.617188 13.132812 C 18.550781 13.085938 18.457031 13.085938 18.386719 13.132812 L 17.097656 14.035156 C 16.964844 14.128906 16.78125 14.035156 16.78125 13.871094 L 16.78125 9.035156 L 10.234375 9.035156 " fill-opacity="1" fill-rule="nonzero"/><path fill="#ffffff" d="M 22.40625 25.539062 L 25.558594 25.539062 L 25.558594 23.171875 L 22.40625 23.171875 L 22.40625 25.539062 " fill-opacity="1" fill-rule="nonzero"/><path fill="#ffffff" d="M 2.296875 18.503906 C 2.296875 9.566406 9.566406 2.296875 18.503906 2.296875 C 23.203125 2.296875 27.441406 4.304688 30.402344 7.511719 L 28.496094 8.882812 L 31.363281 9.921875 L 34.230469 10.957031 L 34.15625 7.910156 L 34.085938 4.863281 L 32.277344 6.164062 C 28.886719 2.382812 23.96875 0 18.503906 0 C 8.300781 0 0 8.300781 0 18.503906 C 0 20.09375 0.203125 21.636719 0.582031 23.113281 L 2.714844 22.171875 C 2.441406 20.992188 2.296875 19.765625 2.296875 18.503906 " fill-opacity="1" fill-rule="nonzero"/><g clip-path="url(#1973f7b898)"><path fill="#ffffff" d="M 36.425781 13.894531 L 34.292969 14.835938 C 34.566406 16.015625 34.710938 17.242188 34.710938 18.503906 C 34.710938 27.441406 27.441406 34.710938 18.503906 34.710938 C 13.6875 34.710938 9.359375 32.601562 6.390625 29.257812 L 8.324219 28.054688 L 5.535156 26.824219 L 2.746094 25.597656 L 2.613281 28.640625 L 2.476562 31.6875 L 4.414062 30.484375 C 7.8125 34.472656 12.867188 37.007812 18.503906 37.007812 C 28.707031 37.007812 37.007812 28.707031 37.007812 18.503906 C 37.007812 16.914062 36.804688 15.367188 36.425781 13.894531 " fill-opacity="1" fill-rule="nonzero"/></g></svg>