<svg xmlns="http://www.w3.org/2000/svg" xmlns:xlink="http://www.w3.org/1999/xlink" width="50" zoomAndPan="magnify" viewBox="0 0 37.5 37.499999" height="50" preserveAspectRatio="xMidYMid meet" version="1.0"><defs><clipPath id="431604307c"><path d="M 0 3.816406 L 37 3.816406 L 37 19 L 0 19 Z M 0 3.816406 " clip-rule="nonzero"/></clipPath><clipPath id="3ddd140c87"><path d="M 0 20 L 37 20 L 37 33.421875 L 0 33.421875 Z M 0 20 " clip-rule="nonzero"/></clipPath></defs><g clip-path="url(#431604307c)"><path fill="#000001" d="M 1.988281 16.78125 C 2.40625 17.75 3.359375 18.34375 4.367188 18.34375 C 4.628906 18.34375 4.890625 18.304688 5.148438 18.222656 C 7.222656 17.570312 9.292969 16.914062 11.367188 16.261719 C 12.691406 15.84375 13.449219 14.457031 13.09375 13.117188 C 13.089844 13.101562 13.085938 13.085938 13.082031 13.074219 C 12.792969 11.996094 13.433594 10.890625 14.515625 10.609375 C 15.589844 10.328125 16.914062 10.105469 18.429688 10.105469 C 18.476562 10.105469 18.523438 10.105469 18.570312 10.105469 C 20.082031 10.121094 21.394531 10.351562 22.464844 10.640625 C 23.492188 10.917969 24.125 11.9375 23.917969 12.980469 L 23.90625 13.027344 C 23.632812 14.410156 24.507812 15.761719 25.882812 16.070312 C 28.113281 16.570312 30.347656 17.074219 32.578125 17.574219 C 32.769531 17.617188 32.960938 17.640625 33.148438 17.640625 C 34.214844 17.640625 35.199219 16.980469 35.582031 15.945312 C 35.707031 15.609375 35.832031 15.277344 35.953125 14.941406 C 37.003906 12.113281 35.816406 8.921875 33.144531 7.511719 C 29.777344 5.738281 24.902344 3.925781 18.855469 3.84375 C 18.714844 3.84375 18.574219 3.839844 18.433594 3.839844 C 12.402344 3.839844 7.496094 5.585938 4.066406 7.335938 C 1.222656 8.785156 0 12.195312 1.269531 15.125 C 1.507812 15.675781 1.746094 16.226562 1.988281 16.78125 Z M 4.832031 8.832031 C 6.71875 7.867188 8.699219 7.101562 10.714844 6.554688 C 13.234375 5.867188 15.828125 5.519531 18.429688 5.519531 C 18.5625 5.519531 18.699219 5.523438 18.832031 5.523438 C 21.4375 5.558594 24.03125 5.941406 26.542969 6.660156 C 28.542969 7.230469 30.5 8.019531 32.359375 9 C 34.269531 10.003906 35.136719 12.308594 34.378906 14.359375 L 34.230469 14.757812 L 34.007812 15.359375 C 33.875 15.71875 33.53125 15.957031 33.148438 15.957031 C 33.082031 15.957031 33.015625 15.949219 32.949219 15.9375 L 29.4375 15.144531 L 26.25 14.429688 C 25.761719 14.320312 25.457031 13.847656 25.554688 13.355469 L 25.5625 13.308594 C 25.945312 11.40625 24.773438 9.519531 22.902344 9.015625 C 21.492188 8.636719 20.039062 8.4375 18.585938 8.421875 C 18.53125 8.421875 18.480469 8.421875 18.429688 8.421875 C 16.964844 8.421875 15.507812 8.609375 14.089844 8.980469 C 13.132812 9.230469 12.332031 9.835938 11.835938 10.691406 C 11.335938 11.546875 11.203125 12.546875 11.457031 13.507812 L 11.464844 13.53125 L 11.46875 13.546875 C 11.59375 14.019531 11.328125 14.507812 10.859375 14.65625 L 4.644531 16.621094 C 4.554688 16.648438 4.460938 16.664062 4.367188 16.664062 C 4.003906 16.664062 3.671875 16.445312 3.527344 16.109375 L 3.132812 15.199219 L 2.8125 14.457031 C 1.898438 12.347656 2.785156 9.875 4.832031 8.828125 Z M 4.832031 8.832031 " fill-opacity="1" fill-rule="nonzero"/></g><g clip-path="url(#3ddd140c87)"><path fill="#000001" d="M 35.289062 20.300781 C 34.824219 20.300781 34.449219 20.679688 34.449219 21.144531 L 34.449219 24.875 C 34.449219 28.523438 31.480469 31.488281 27.832031 31.488281 L 9.269531 31.488281 C 5.621094 31.488281 2.652344 28.523438 2.652344 24.875 L 2.652344 21.144531 C 2.652344 20.679688 2.277344 20.300781 1.8125 20.300781 C 1.347656 20.300781 0.972656 20.679688 0.972656 21.144531 L 0.972656 24.875 C 0.972656 29.449219 4.695312 33.167969 9.269531 33.167969 L 27.832031 33.167969 C 32.40625 33.167969 36.128906 29.449219 36.128906 24.875 L 36.128906 21.144531 C 36.128906 20.679688 35.753906 20.300781 35.289062 20.300781 Z M 35.289062 20.300781 " fill-opacity="1" fill-rule="nonzero"/></g><path fill="#000001" d="M 18.550781 17.542969 C 15.839844 17.542969 13.640625 19.738281 13.640625 22.453125 C 13.640625 25.164062 15.839844 27.359375 18.550781 27.359375 C 21.261719 27.359375 23.460938 25.160156 23.460938 22.453125 C 23.460938 19.742188 21.261719 17.542969 18.550781 17.542969 Z M 18.550781 25.679688 C 16.769531 25.679688 15.320312 24.230469 15.320312 22.453125 C 15.320312 20.671875 16.769531 19.222656 18.550781 19.222656 C 20.332031 19.222656 21.78125 20.671875 21.78125 22.453125 C 21.78125 24.230469 20.332031 25.679688 18.550781 25.679688 Z M 18.550781 25.679688 " fill-opacity="1" fill-rule="nonzero"/></svg>