<svg xmlns="http://www.w3.org/2000/svg" xmlns:xlink="http://www.w3.org/1999/xlink" width="50" zoomAndPan="magnify" viewBox="0 0 37.5 37.499999" height="50" preserveAspectRatio="xMidYMid meet" version="1.0"><defs><clipPath id="0bc51fc55d"><path d="M 0 0 L 37.007812 0 L 37.007812 37.007812 L 0 37.007812 Z M 0 0 " clip-rule="nonzero"/></clipPath></defs><g clip-path="url(#0bc51fc55d)"><path fill="#000001" d="M 32.316406 6.207031 C 32.265625 6.128906 32.203125 6.0625 32.136719 6.003906 C 28.75 2.316406 23.890625 -0.00390625 18.5 -0.00390625 C 13.109375 -0.00390625 8.253906 2.316406 4.867188 6.003906 C 4.800781 6.0625 4.738281 6.128906 4.683594 6.207031 C 1.773438 9.476562 0 13.785156 0 18.5 C 0 28.703125 8.296875 37.003906 18.5 37.003906 C 28.703125 37.003906 37.003906 28.703125 37.003906 18.5 C 37.003906 13.785156 35.230469 9.476562 32.316406 6.207031 Z M 31.640625 28.628906 C 30.371094 27.875 28.78125 27.085938 26.90625 26.4375 C 27.742188 24.175781 28.207031 21.84375 28.304688 19.453125 L 35.070312 19.453125 C 34.871094 22.894531 33.625 26.058594 31.640625 28.628906 Z M 1.933594 19.453125 L 8.605469 19.453125 C 8.703125 21.851562 9.175781 24.195312 10.015625 26.464844 C 8.175781 27.109375 6.613281 27.886719 5.363281 28.625 C 3.378906 26.058594 2.128906 22.894531 1.933594 19.453125 Z M 5.683594 7.96875 C 6.925781 8.679688 8.445312 9.410156 10.214844 10.015625 C 9.25 12.445312 8.710938 14.964844 8.605469 17.546875 L 1.933594 17.546875 C 2.140625 13.921875 3.515625 10.605469 5.683594 7.96875 Z M 17.546875 11.371094 L 17.546875 17.546875 L 10.515625 17.546875 C 10.636719 14.945312 11.234375 12.605469 12.0625 10.570312 C 13.71875 11 15.554688 11.300781 17.546875 11.371094 Z M 12.867188 8.804688 C 14.398438 5.792969 16.324219 3.601562 17.546875 2.394531 L 17.546875 9.464844 C 15.859375 9.394531 14.296875 9.15625 12.867188 8.804688 Z M 19.457031 11.371094 C 21.414062 11.300781 23.222656 11.011719 24.855469 10.589844 C 25.679688 12.621094 26.277344 14.953125 26.394531 17.546875 L 19.457031 17.546875 Z M 19.457031 9.464844 L 19.457031 2.484375 C 20.683594 3.714844 22.558594 5.875 24.050781 8.824219 C 22.648438 9.164062 21.109375 9.398438 19.457031 9.464844 Z M 24.660156 5.988281 C 23.730469 4.496094 22.753906 3.25 21.859375 2.246094 C 24.972656 2.886719 27.773438 4.40625 29.984375 6.53125 C 28.851562 7.152344 27.496094 7.777344 25.933594 8.289062 C 25.554688 7.511719 25.128906 6.746094 24.660156 5.988281 Z M 12.253906 5.988281 C 11.785156 6.738281 11.367188 7.496094 10.988281 8.265625 C 9.460938 7.753906 8.128906 7.140625 7.019531 6.53125 C 9.203125 4.433594 11.960938 2.925781 15.03125 2.269531 C 14.140625 3.269531 13.171875 4.507812 12.253906 5.988281 Z M 10.515625 19.453125 L 17.546875 19.453125 L 17.546875 25.039062 C 15.46875 25.113281 13.566406 25.4375 11.855469 25.894531 C 11.136719 23.988281 10.625 21.832031 10.515625 19.453125 Z M 17.546875 26.945312 L 17.546875 34.605469 C 16.257812 33.328125 14.175781 30.957031 12.609375 27.671875 C 14.105469 27.285156 15.757812 27.019531 17.546875 26.945312 Z M 19.457031 26.945312 C 21.214844 27.015625 22.835938 27.277344 24.3125 27.648438 C 22.777344 30.867188 20.753906 33.210938 19.457031 34.515625 Z M 19.457031 25.039062 L 19.457031 19.453125 L 26.394531 19.453125 C 26.285156 21.824219 25.777344 23.972656 25.066406 25.871094 C 23.375 25.425781 21.5 25.113281 19.457031 25.039062 Z M 28.304688 17.546875 C 28.199219 14.972656 27.664062 12.464844 26.707031 10.042969 C 28.511719 9.433594 30.058594 8.691406 31.320312 7.96875 C 33.488281 10.605469 34.863281 13.921875 35.066406 17.546875 Z M 6.640625 30.09375 C 7.769531 29.445312 9.144531 28.78125 10.75 28.226562 C 11.183594 29.171875 11.6875 30.097656 12.253906 31.011719 C 13.171875 32.492188 14.140625 33.730469 15.03125 34.730469 C 11.78125 34.035156 8.882812 32.386719 6.640625 30.09375 Z M 21.859375 34.753906 C 22.753906 33.75 23.730469 32.503906 24.660156 31.011719 C 25.230469 30.089844 25.734375 29.152344 26.175781 28.199219 C 27.808594 28.757812 29.214844 29.4375 30.363281 30.09375 C 28.09375 32.414062 25.152344 34.074219 21.859375 34.753906 Z M 21.859375 34.753906 " fill-opacity="1" fill-rule="nonzero"/></g></svg>