<svg xmlns="http://www.w3.org/2000/svg" xmlns:xlink="http://www.w3.org/1999/xlink" width="50" zoomAndPan="magnify" viewBox="0 0 37.5 37.499999" height="50" preserveAspectRatio="xMidYMid meet" version="1.0"><defs><clipPath id="8dfb94442d"><path d="M 2.441406 0 L 35 0 L 35 37 L 2.441406 37 Z M 2.441406 0 " clip-rule="nonzero"/></clipPath></defs><g clip-path="url(#8dfb94442d)"><path fill="#ffffff" d="M 18.964844 23.496094 L 18.964844 26.507812 C 18.964844 26.59375 19.003906 26.667969 19.078125 26.710938 L 21.4375 28.070312 C 21.589844 28.160156 21.785156 28.046875 21.785156 27.867188 L 21.785156 23.847656 L 31.507812 18.234375 L 34.574219 20.003906 C 34.820312 20.144531 34.960938 20.390625 34.960938 20.671875 L 34.960938 31.011719 C 34.960938 31.292969 34.820312 31.539062 34.574219 31.679688 L 25.621094 36.847656 C 25.378906 36.992188 25.09375 36.992188 24.847656 36.847656 L 15.898438 31.679688 C 15.652344 31.539062 15.511719 31.292969 15.511719 31.011719 L 15.511719 21.65625 L 18.273438 23.25 C 18.492188 23.378906 18.726562 23.460938 18.964844 23.496094 Z M 19.664062 0.164062 C 19.417969 0.0234375 19.136719 0.0234375 18.890625 0.164062 L 9.941406 5.332031 C 9.695312 5.476562 9.554688 5.71875 9.554688 6.003906 L 9.554688 16.339844 C 9.554688 16.625 9.695312 16.867188 9.941406 17.011719 L 18.890625 22.179688 C 19.136719 22.320312 19.417969 22.320312 19.664062 22.179688 L 28.617188 17.011719 C 28.863281 16.867188 29.003906 16.625 29.003906 16.339844 L 29.003906 6.003906 C 29.003906 5.71875 28.863281 5.476562 28.617188 5.332031 L 25.550781 3.5625 L 15.824219 9.179688 L 15.824219 13.199219 C 15.824219 13.378906 15.632812 13.488281 15.476562 13.398438 L 13.121094 12.039062 C 13.046875 11.996094 13.003906 11.925781 13.003906 11.839844 L 13.003906 7.550781 L 22.730469 1.9375 Z M 8.316406 13.273438 L 5.890625 14.671875 L 5.890625 18.960938 C 5.890625 19.046875 5.933594 19.121094 6.007812 19.164062 L 8.363281 20.523438 C 8.519531 20.613281 8.710938 20.5 8.710938 20.320312 L 8.710938 17.542969 C 8.871094 17.757812 9.078125 17.941406 9.320312 18.082031 L 14.273438 20.941406 L 14.273438 28.308594 L 12.550781 29.300781 C 12.304688 29.445312 12.023438 29.445312 11.777344 29.300781 L 2.824219 24.132812 C 2.578125 23.992188 2.4375 23.746094 2.4375 23.464844 L 2.4375 13.125 C 2.4375 12.84375 2.578125 12.597656 2.824219 12.457031 L 8.316406 9.289062 Z M 8.316406 13.273438 " fill-opacity="1" fill-rule="evenodd"/></g></svg>