<svg xmlns="http://www.w3.org/2000/svg" xmlns:xlink="http://www.w3.org/1999/xlink" width="50" zoomAndPan="magnify" viewBox="0 0 37.5 37.499999" height="50" preserveAspectRatio="xMidYMid meet" version="1.0"><path fill="#ffffff" d="M 11.941406 31.691406 L 27.6875 31.691406 L 27.6875 34.316406 L 11.941406 34.316406 Z M 11.941406 31.691406 " fill-opacity="1" fill-rule="nonzero"/><path fill="#ffffff" d="M 6.375 34.277344 L 1.125 32.964844 C 0.832031 32.890625 0.59375 32.738281 0.410156 32.5 C 0.222656 32.261719 0.132812 31.992188 0.132812 31.691406 L 0.132812 29.066406 C 0.132812 28.703125 0.257812 28.394531 0.515625 28.140625 L 4.453125 24.203125 L 6.308594 26.058594 L 2.753906 29.609375 L 2.753906 30.667969 L 7.011719 31.730469 Z M 6.375 34.277344 " fill-opacity="1" fill-rule="nonzero"/><path fill="#ffffff" d="M 30.3125 36.941406 C 30.054688 36.941406 29.800781 36.914062 29.546875 36.867188 C 29.292969 36.816406 29.046875 36.738281 28.808594 36.640625 C 28.570312 36.542969 28.339844 36.421875 28.125 36.277344 C 27.910156 36.132812 27.714844 35.96875 27.53125 35.789062 C 27.347656 35.605469 27.183594 35.40625 27.039062 35.191406 C 26.898438 34.976562 26.777344 34.75 26.675781 34.511719 C 26.578125 34.273438 26.503906 34.027344 26.453125 33.773438 C 26.402344 33.519531 26.378906 33.261719 26.378906 33.003906 C 26.378906 32.746094 26.402344 32.488281 26.453125 32.234375 C 26.503906 31.984375 26.578125 31.738281 26.675781 31.496094 C 26.777344 31.257812 26.898438 31.03125 27.039062 30.816406 C 27.183594 30.601562 27.347656 30.402344 27.53125 30.21875 C 27.714844 30.039062 27.910156 29.875 28.125 29.730469 C 28.339844 29.585938 28.570312 29.464844 28.808594 29.367188 C 29.046875 29.269531 29.292969 29.191406 29.546875 29.144531 C 29.800781 29.09375 30.054688 29.066406 30.3125 29.066406 C 30.574219 29.066406 30.828125 29.09375 31.082031 29.144531 C 31.335938 29.191406 31.582031 29.269531 31.820312 29.367188 C 32.058594 29.464844 32.285156 29.585938 32.5 29.730469 C 32.714844 29.875 32.914062 30.039062 33.097656 30.21875 C 33.28125 30.402344 33.445312 30.601562 33.585938 30.816406 C 33.730469 31.03125 33.851562 31.257812 33.949219 31.496094 C 34.050781 31.738281 34.125 31.984375 34.175781 32.234375 C 34.226562 32.488281 34.25 32.746094 34.25 33.003906 C 34.25 33.261719 34.226562 33.519531 34.175781 33.773438 C 34.125 34.023438 34.050781 34.269531 33.949219 34.511719 C 33.851562 34.75 33.730469 34.976562 33.585938 35.191406 C 33.441406 35.40625 33.277344 35.605469 33.097656 35.785156 C 32.914062 35.96875 32.714844 36.132812 32.5 36.277344 C 32.285156 36.417969 32.058594 36.542969 31.820312 36.640625 C 31.582031 36.738281 31.335938 36.8125 31.082031 36.863281 C 30.828125 36.914062 30.574219 36.941406 30.3125 36.941406 Z M 30.3125 31.691406 C 30.140625 31.691406 29.972656 31.726562 29.8125 31.792969 C 29.652344 31.859375 29.507812 31.953125 29.386719 32.074219 C 29.261719 32.199219 29.167969 32.339844 29.101562 32.5 C 29.035156 32.664062 29 32.828125 29 33.003906 C 29 33.179688 29.035156 33.34375 29.101562 33.507812 C 29.167969 33.667969 29.261719 33.808594 29.386719 33.933594 C 29.507812 34.054688 29.652344 34.148438 29.8125 34.214844 C 29.972656 34.28125 30.140625 34.316406 30.3125 34.316406 C 30.488281 34.316406 30.65625 34.28125 30.816406 34.214844 C 30.976562 34.148438 31.117188 34.054688 31.242188 33.933594 C 31.363281 33.808594 31.460938 33.667969 31.527344 33.507812 C 31.59375 33.34375 31.625 33.179688 31.625 33.003906 C 31.625 32.832031 31.59375 32.664062 31.527344 32.503906 C 31.460938 32.339844 31.363281 32.199219 31.242188 32.078125 C 31.117188 31.953125 30.976562 31.859375 30.816406 31.792969 C 30.65625 31.726562 30.488281 31.691406 30.3125 31.691406 Z M 30.3125 31.691406 " fill-opacity="1" fill-rule="nonzero"/><path fill="#ffffff" d="M 9.316406 36.941406 C 9.058594 36.941406 8.804688 36.914062 8.550781 36.867188 C 8.296875 36.816406 8.050781 36.738281 7.8125 36.640625 C 7.570312 36.542969 7.34375 36.421875 7.128906 36.277344 C 6.914062 36.132812 6.714844 35.96875 6.535156 35.789062 C 6.351562 35.605469 6.1875 35.40625 6.042969 35.191406 C 5.898438 34.976562 5.777344 34.75 5.679688 34.511719 C 5.582031 34.273438 5.507812 34.027344 5.457031 33.773438 C 5.40625 33.519531 5.378906 33.261719 5.378906 33.003906 C 5.378906 32.746094 5.40625 32.488281 5.457031 32.234375 C 5.507812 31.984375 5.582031 31.738281 5.679688 31.496094 C 5.777344 31.257812 5.898438 31.03125 6.042969 30.816406 C 6.1875 30.601562 6.351562 30.402344 6.535156 30.21875 C 6.714844 30.039062 6.914062 29.875 7.128906 29.730469 C 7.34375 29.585938 7.570312 29.464844 7.8125 29.367188 C 8.050781 29.269531 8.296875 29.191406 8.550781 29.144531 C 8.804688 29.09375 9.058594 29.066406 9.316406 29.066406 C 9.574219 29.066406 9.832031 29.09375 10.085938 29.144531 C 10.339844 29.191406 10.585938 29.269531 10.824219 29.367188 C 11.0625 29.464844 11.289062 29.585938 11.503906 29.730469 C 11.71875 29.875 11.917969 30.039062 12.101562 30.21875 C 12.285156 30.402344 12.445312 30.601562 12.589844 30.816406 C 12.734375 31.03125 12.855469 31.257812 12.953125 31.496094 C 13.054688 31.738281 13.128906 31.984375 13.179688 32.234375 C 13.230469 32.488281 13.253906 32.746094 13.253906 33.003906 C 13.253906 33.261719 13.226562 33.519531 13.179688 33.773438 C 13.128906 34.023438 13.050781 34.269531 12.953125 34.511719 C 12.855469 34.75 12.734375 34.976562 12.589844 35.191406 C 12.445312 35.40625 12.28125 35.605469 12.101562 35.785156 C 11.917969 35.96875 11.71875 36.132812 11.503906 36.277344 C 11.289062 36.417969 11.0625 36.542969 10.824219 36.640625 C 10.585938 36.738281 10.339844 36.8125 10.085938 36.863281 C 9.832031 36.914062 9.574219 36.941406 9.316406 36.941406 Z M 9.316406 31.691406 C 9.144531 31.691406 8.976562 31.726562 8.816406 31.792969 C 8.652344 31.859375 8.511719 31.953125 8.390625 32.074219 C 8.265625 32.199219 8.171875 32.339844 8.105469 32.5 C 8.039062 32.664062 8.003906 32.828125 8.003906 33.003906 C 8.003906 33.179688 8.039062 33.34375 8.105469 33.507812 C 8.171875 33.667969 8.265625 33.808594 8.390625 33.933594 C 8.511719 34.054688 8.652344 34.148438 8.816406 34.214844 C 8.976562 34.28125 9.144531 34.316406 9.316406 34.316406 C 9.492188 34.316406 9.660156 34.28125 9.820312 34.214844 C 9.980469 34.148438 10.121094 34.054688 10.246094 33.933594 C 10.367188 33.808594 10.464844 33.667969 10.53125 33.507812 C 10.597656 33.34375 10.628906 33.179688 10.628906 33.003906 C 10.628906 32.832031 10.597656 32.664062 10.527344 32.503906 C 10.460938 32.339844 10.367188 32.199219 10.246094 32.078125 C 10.121094 31.953125 9.980469 31.859375 9.820312 31.792969 C 9.660156 31.726562 9.492188 31.691406 9.316406 31.691406 Z M 9.316406 31.691406 " fill-opacity="1" fill-rule="nonzero"/><path fill="#ffffff" d="M 6.691406 8.070312 C 6.410156 8.070312 6.15625 7.988281 5.925781 7.824219 C 5.695312 7.65625 5.535156 7.441406 5.449219 7.171875 L 4.34375 3.859375 L 1.027344 2.753906 C 0.863281 2.699219 0.714844 2.613281 0.582031 2.5 C 0.453125 2.386719 0.347656 2.25 0.269531 2.097656 C 0.191406 1.941406 0.148438 1.777344 0.136719 1.601562 C 0.121094 1.429688 0.144531 1.257812 0.199219 1.09375 C 0.253906 0.929688 0.339844 0.78125 0.453125 0.648438 C 0.566406 0.519531 0.703125 0.414062 0.855469 0.335938 C 1.011719 0.257812 1.175781 0.210938 1.351562 0.199219 C 1.523438 0.1875 1.695312 0.210938 1.859375 0.265625 L 5.796875 1.578125 C 6.210938 1.714844 6.488281 1.992188 6.625 2.40625 L 7.9375 6.34375 C 8.003906 6.542969 8.019531 6.746094 7.988281 6.957031 C 7.957031 7.164062 7.878906 7.355469 7.757812 7.523438 C 7.632812 7.695312 7.476562 7.832031 7.289062 7.925781 C 7.101562 8.023438 6.902344 8.070312 6.691406 8.070312 Z M 6.691406 8.070312 " fill-opacity="1" fill-rule="nonzero"/><path fill="#ffffff" d="M 5.378906 26.441406 C 5.199219 26.441406 5.023438 26.40625 4.855469 26.332031 C 4.691406 26.261719 4.542969 26.15625 4.417969 26.023438 C 4.296875 25.890625 4.203125 25.738281 4.144531 25.566406 C 4.082031 25.394531 4.058594 25.21875 4.070312 25.035156 L 5.382812 6.664062 C 5.394531 6.488281 5.441406 6.324219 5.523438 6.164062 C 5.601562 6.007812 5.707031 5.871094 5.84375 5.757812 C 5.976562 5.644531 6.128906 5.5625 6.296875 5.507812 C 6.464844 5.453125 6.636719 5.433594 6.8125 5.449219 L 14.921875 6.1875 L 14.683594 8.800781 L 7.90625 8.1875 L 6.792969 23.75 L 31.835938 22.558594 L 34.015625 10.558594 L 30.167969 10.203125 L 30.410156 7.589844 L 35.683594 8.078125 C 35.867188 8.09375 36.039062 8.144531 36.199219 8.234375 C 36.359375 8.324219 36.496094 8.441406 36.609375 8.589844 C 36.71875 8.734375 36.796875 8.898438 36.839844 9.078125 C 36.882812 9.257812 36.886719 9.4375 36.855469 9.617188 L 34.230469 24.050781 C 34.175781 24.351562 34.03125 24.601562 33.804688 24.804688 C 33.574219 25.003906 33.304688 25.113281 33 25.128906 L 5.445312 26.441406 Z M 5.378906 26.441406 " fill-opacity="1" fill-rule="nonzero"/><path fill="#ffffff" d="M 35.5625 34.316406 L 32.9375 34.316406 C 32.765625 34.316406 32.597656 34.28125 32.4375 34.214844 C 32.277344 34.148438 32.132812 34.054688 32.011719 33.933594 C 31.886719 33.808594 31.792969 33.667969 31.726562 33.507812 C 31.660156 33.34375 31.625 33.179688 31.625 33.003906 C 31.625 32.828125 31.660156 32.664062 31.726562 32.5 C 31.792969 32.339844 31.886719 32.199219 32.011719 32.074219 C 32.132812 31.953125 32.277344 31.859375 32.4375 31.792969 C 32.597656 31.726562 32.765625 31.691406 32.9375 31.691406 L 35.5625 31.691406 C 35.738281 31.691406 35.90625 31.726562 36.066406 31.792969 C 36.226562 31.859375 36.367188 31.953125 36.492188 32.074219 C 36.613281 32.199219 36.707031 32.339844 36.777344 32.5 C 36.84375 32.664062 36.875 32.828125 36.875 33.003906 C 36.875 33.179688 36.84375 33.34375 36.777344 33.507812 C 36.707031 33.667969 36.613281 33.808594 36.492188 33.933594 C 36.367188 34.054688 36.226562 34.148438 36.066406 34.214844 C 35.90625 34.28125 35.738281 34.316406 35.5625 34.316406 Z M 35.5625 34.316406 " fill-opacity="1" fill-rule="nonzero"/><path fill="#ffffff" d="M 22.441406 18.570312 C 21.835938 18.570312 21.238281 18.511719 20.648438 18.390625 C 20.054688 18.273438 19.480469 18.101562 18.925781 17.871094 C 18.367188 17.640625 17.839844 17.355469 17.335938 17.019531 C 16.835938 16.6875 16.371094 16.304688 15.945312 15.878906 C 15.519531 15.453125 15.136719 14.988281 14.800781 14.488281 C 14.46875 13.984375 14.183594 13.457031 13.953125 12.898438 C 13.722656 12.339844 13.546875 11.765625 13.429688 11.175781 C 13.3125 10.582031 13.253906 9.984375 13.253906 9.382812 C 13.253906 8.78125 13.3125 8.183594 13.429688 7.589844 C 13.546875 7 13.722656 6.425781 13.953125 5.867188 C 14.183594 5.308594 14.46875 4.78125 14.800781 4.28125 C 15.136719 3.777344 15.519531 3.3125 15.945312 2.886719 C 16.371094 2.460938 16.835938 2.078125 17.335938 1.746094 C 17.839844 1.410156 18.367188 1.125 18.925781 0.894531 C 19.480469 0.664062 20.054688 0.492188 20.648438 0.375 C 21.238281 0.253906 21.835938 0.195312 22.441406 0.195312 C 23.042969 0.195312 23.640625 0.253906 24.230469 0.375 C 24.824219 0.492188 25.398438 0.664062 25.957031 0.894531 C 26.511719 1.125 27.042969 1.410156 27.542969 1.746094 C 28.046875 2.078125 28.507812 2.460938 28.9375 2.886719 C 29.363281 3.3125 29.742188 3.777344 30.078125 4.28125 C 30.414062 4.78125 30.695312 5.308594 30.925781 5.867188 C 31.15625 6.425781 31.332031 7 31.449219 7.589844 C 31.566406 8.183594 31.625 8.78125 31.625 9.382812 C 31.625 9.984375 31.566406 10.582031 31.449219 11.175781 C 31.328125 11.765625 31.15625 12.339844 30.925781 12.898438 C 30.691406 13.453125 30.410156 13.984375 30.074219 14.484375 C 29.738281 14.984375 29.359375 15.449219 28.933594 15.875 C 28.507812 16.300781 28.042969 16.683594 27.542969 17.019531 C 27.039062 17.351562 26.511719 17.636719 25.953125 17.867188 C 25.398438 18.097656 24.824219 18.273438 24.230469 18.390625 C 23.640625 18.507812 23.042969 18.566406 22.441406 18.570312 Z M 22.441406 2.820312 C 22.007812 2.820312 21.582031 2.863281 21.160156 2.949219 C 20.738281 3.03125 20.328125 3.15625 19.929688 3.320312 C 19.53125 3.484375 19.152344 3.6875 18.792969 3.925781 C 18.4375 4.167969 18.105469 4.4375 17.800781 4.742188 C 17.496094 5.046875 17.222656 5.378906 16.984375 5.738281 C 16.746094 6.097656 16.542969 6.472656 16.378906 6.871094 C 16.214844 7.269531 16.089844 7.679688 16.003906 8.101562 C 15.921875 8.523438 15.878906 8.953125 15.878906 9.382812 C 15.878906 9.8125 15.921875 10.242188 16.003906 10.664062 C 16.089844 11.085938 16.214844 11.496094 16.378906 11.894531 C 16.542969 12.292969 16.746094 12.671875 16.984375 13.027344 C 17.222656 13.386719 17.496094 13.71875 17.800781 14.023438 C 18.105469 14.328125 18.4375 14.597656 18.792969 14.839844 C 19.152344 15.078125 19.53125 15.28125 19.929688 15.445312 C 20.328125 15.609375 20.738281 15.734375 21.160156 15.816406 C 21.582031 15.902344 22.007812 15.945312 22.441406 15.945312 C 22.871094 15.945312 23.296875 15.902344 23.71875 15.816406 C 24.144531 15.734375 24.554688 15.609375 24.949219 15.445312 C 25.347656 15.28125 25.726562 15.078125 26.085938 14.839844 C 26.445312 14.597656 26.773438 14.328125 27.078125 14.023438 C 27.382812 13.71875 27.65625 13.386719 27.894531 13.027344 C 28.136719 12.671875 28.335938 12.292969 28.503906 11.894531 C 28.667969 11.496094 28.792969 11.085938 28.875 10.664062 C 28.960938 10.242188 29 9.8125 29 9.382812 C 29 8.953125 28.957031 8.527344 28.875 8.101562 C 28.789062 7.679688 28.664062 7.269531 28.5 6.875 C 28.335938 6.476562 28.132812 6.097656 27.894531 5.738281 C 27.652344 5.382812 27.382812 5.050781 27.078125 4.746094 C 26.773438 4.441406 26.441406 4.167969 26.082031 3.929688 C 25.726562 3.691406 25.347656 3.488281 24.949219 3.324219 C 24.550781 3.15625 24.140625 3.03125 23.71875 2.949219 C 23.296875 2.863281 22.871094 2.820312 22.441406 2.820312 Z M 22.441406 2.820312 " fill-opacity="1" fill-rule="nonzero"/><path fill="#ffffff" d="M 25.066406 10.695312 L 19.816406 10.695312 C 19.640625 10.695312 19.472656 10.660156 19.3125 10.59375 C 19.152344 10.527344 19.011719 10.433594 18.886719 10.3125 C 18.765625 10.1875 18.667969 10.046875 18.601562 9.886719 C 18.535156 9.722656 18.503906 9.558594 18.503906 9.382812 C 18.503906 9.207031 18.535156 9.042969 18.601562 8.878906 C 18.667969 8.71875 18.765625 8.578125 18.886719 8.453125 C 19.011719 8.332031 19.152344 8.238281 19.3125 8.171875 C 19.472656 8.105469 19.640625 8.070312 19.816406 8.070312 L 25.066406 8.070312 C 25.238281 8.070312 25.40625 8.105469 25.566406 8.171875 C 25.726562 8.238281 25.871094 8.332031 25.992188 8.453125 C 26.117188 8.578125 26.210938 8.71875 26.277344 8.878906 C 26.34375 9.042969 26.378906 9.207031 26.378906 9.382812 C 26.378906 9.558594 26.34375 9.722656 26.277344 9.886719 C 26.210938 10.046875 26.117188 10.1875 25.992188 10.3125 C 25.871094 10.433594 25.726562 10.527344 25.566406 10.59375 C 25.40625 10.660156 25.238281 10.695312 25.066406 10.695312 Z M 25.066406 10.695312 " fill-opacity="1" fill-rule="nonzero"/><path fill="#ffffff" d="M 22.441406 13.320312 C 22.265625 13.320312 22.097656 13.285156 21.9375 13.21875 C 21.777344 13.152344 21.636719 13.058594 21.511719 12.933594 C 21.390625 12.8125 21.292969 12.671875 21.226562 12.507812 C 21.160156 12.347656 21.128906 12.179688 21.128906 12.007812 L 21.128906 6.757812 C 21.128906 6.585938 21.160156 6.417969 21.226562 6.257812 C 21.292969 6.09375 21.390625 5.953125 21.511719 5.832031 C 21.636719 5.707031 21.777344 5.613281 21.9375 5.546875 C 22.097656 5.480469 22.265625 5.445312 22.441406 5.445312 C 22.613281 5.445312 22.78125 5.480469 22.941406 5.546875 C 23.101562 5.613281 23.246094 5.707031 23.367188 5.832031 C 23.492188 5.953125 23.585938 6.09375 23.652344 6.257812 C 23.71875 6.417969 23.753906 6.585938 23.753906 6.757812 L 23.753906 12.007812 C 23.753906 12.179688 23.71875 12.347656 23.652344 12.507812 C 23.585938 12.671875 23.492188 12.8125 23.367188 12.933594 C 23.246094 13.058594 23.101562 13.152344 22.941406 13.21875 C 22.78125 13.285156 22.613281 13.320312 22.441406 13.320312 Z M 22.441406 13.320312 " fill-opacity="1" fill-rule="nonzero"/></svg>