<svg xmlns="http://www.w3.org/2000/svg" xmlns:xlink="http://www.w3.org/1999/xlink" width="50" zoomAndPan="magnify" viewBox="0 0 37.5 37.499999" height="50" preserveAspectRatio="xMidYMid meet" version="1.0"><defs><clipPath id="aa1c4110e9"><path d="M 1.320312 0 L 35.363281 0 L 35.363281 37 L 1.320312 37 Z M 1.320312 0 " clip-rule="nonzero"/></clipPath></defs><g clip-path="url(#aa1c4110e9)"><path fill="#ffffff" d="M 14.4375 0.136719 C 10.101562 0.136719 6.566406 3.671875 6.566406 8.007812 C 6.566406 12.34375 10.101562 15.878906 14.4375 15.878906 C 18.773438 15.878906 22.308594 12.34375 22.308594 8.007812 C 22.308594 3.671875 18.773438 0.136719 14.4375 0.136719 Z M 14.4375 15.878906 C 7.199219 15.878906 1.320312 21.761719 1.320312 28.996094 L 3.941406 28.996094 C 3.941406 23.207031 8.644531 18.503906 14.4375 18.503906 C 16.875 18.503906 19.089844 19.375 20.871094 20.757812 L 22.707031 18.894531 C 20.441406 17.046875 17.582031 15.878906 14.4375 15.878906 Z M 14.4375 2.761719 C 17.347656 2.761719 19.683594 5.097656 19.683594 8.007812 C 19.683594 10.917969 17.347656 13.257812 14.4375 13.257812 C 11.527344 13.257812 9.1875 10.917969 9.1875 8.007812 C 9.1875 5.097656 11.527344 2.761719 14.4375 2.761719 Z M 30.710938 15.890625 C 29.859375 15.898438 29.011719 16.226562 28.375 16.882812 L 16.136719 29.324219 L 14.3125 36.992188 L 21.980469 35.179688 L 22.234375 34.910156 L 34.433594 22.929688 C 35.734375 21.660156 35.753906 19.519531 34.453125 18.226562 L 33.078125 16.84375 C 32.433594 16.199219 31.574219 15.878906 30.710938 15.890625 Z M 30.730469 18.492188 C 30.90625 18.492188 31.082031 18.566406 31.222656 18.707031 L 32.597656 20.082031 C 32.882812 20.359375 32.882812 20.777344 32.597656 21.066406 L 20.667969 32.78125 L 17.839844 33.464844 L 18.515625 30.636719 L 30.25 18.707031 C 30.382812 18.566406 30.558594 18.492188 30.730469 18.492188 Z M 30.730469 18.492188 " fill-opacity="1" fill-rule="nonzero"/></g></svg>